<?xml version="1.0" encoding="utf-8"?>
<svg version="1.1" id="Layer_1" xmlns="http://www.w3.org/2000/svg" xmlns:xlink="http://www.w3.org/1999/xlink" x="0px" y="0px"
	 viewBox="0 0 132 132" style="enable-background:new 0 0 132 132;" xml:space="preserve" width="132" height="132">
<style type="text/css">
	.st0{fill:#D04A02;}
</style>
<path class="st0" d="M0,0v132h132V0H0z M126.4,126.4H5.6v-12.2h120.7V126.4z M126.4,108.5h-29v-4c12.5-1.5,22-12.1,22-24.8l0-2.8h-3
	c-7.4,0-14.4,3.2-19.1,8.8V75.6c12.5-1.5,22-12.1,22-24.8l0-2.8h-3c-7.4,0-14.4,3.2-19.1,8.8V46.8c12.5-1.5,22-12.1,22-24.8l0-2.8
	h-3c-9.2,0-17.7,5-22,13.2c-4.3-8.2-12.8-13.3-22-13.2h-2.9V22c0,12.7,9.6,23.3,22.2,24.8v10.4C87,51.4,79.9,48,72.5,48h-3v2.8
	c0,12.7,9.6,23.3,22.2,24.7V86C87,80.3,79.9,77,72.4,77h-2.9v2.8c0,12.7,9.6,23.3,22.2,24.8v3.9H41.1v-3.9c12.5-1.5,22-12.1,22-24.8
	l0.1-2.8h-3c-7.4,0-14.4,3.2-19.1,8.8v-10c12.5-1.5,22-12.1,22-24.8l0.1-2.8h-3c-9.2,0-17.7,5-22,13.2c-4.3-8.1-12.8-13.2-22-13.2
	h-2.9v2.8c0,12.7,9.6,23.3,22.2,24.8V86c-4.7-5.8-11.8-9.1-19.3-9.1h-3v2.8c0,12.7,9.6,23.3,22.2,24.8v3.9H5.6V5.6h120.7V108.5z
	 M97.4,98.8c1.3-8.3,7.8-14.8,16.1-16C112.2,91.1,105.7,97.5,97.4,98.8z M97.4,69.9c1.3-8.3,7.8-14.8,16.1-16
	C112.2,62.2,105.7,68.6,97.4,69.9z M97.4,41c1.3-8.3,7.8-14.8,16.1-16C112.2,33.2,105.7,39.7,97.4,41z M91.5,41
	c-8.3-1.3-14.7-7.8-16.1-16C83.7,26.2,90.2,32.7,91.5,41z M91.5,69.9c-8.3-1.3-14.7-7.8-16.1-16C83.7,55.2,90.2,61.6,91.5,69.9z
	 M91.5,98.8c-8.3-1.3-14.7-7.8-16.1-16C83.7,84.1,90.2,90.6,91.5,98.8z M41.1,98.8c1.3-8.3,7.8-14.8,16.1-16
	C55.9,91.1,49.4,97.5,41.1,98.8z M41.1,70.1c1.3-8.3,7.8-14.8,16.1-16C55.9,62.3,49.4,68.8,41.1,70.1z M35.2,70.1
	c-8.3-1.3-14.7-7.8-16.1-16C27.4,55.3,33.9,61.8,35.2,70.1z M35.2,98.8c-8.3-1.3-14.7-7.8-16.1-16C27.4,84.1,33.9,90.6,35.2,98.8z"
	/>
</svg>
