<?xml version="1.0" encoding="utf-8"?>
<svg version="1.1" id="Layer_1" xmlns="http://www.w3.org/2000/svg" xmlns:xlink="http://www.w3.org/1999/xlink" x="0px" y="0px"
	 viewBox="0 0 132 132" style="enable-background:new 0 0 132 132;" xml:space="preserve" width="132" height="132">
<style type="text/css">
	.st0{fill:#D04A02;}
</style>
<path class="st0" d="M0,0v132h132V0H0z M126.4,5.6v87.4c-0.8-0.5-1.7-1-2.6-1.3c-2.1-0.8-4.9-1.7-8.3-2.8l-0.2-0.1c-3.3-1.2-5.2,0.3-6.1,1.8
	c-0.2,0.3-0.4,0.4-1.1,0.4c-0.7,0-0.9-0.1-1.1-0.4c-1-1.4-2.9-2.9-6.1-1.8l-0.2,0.1c-3.3,1.1-6.1,2.1-8.3,2.8
	c-2.1,0.8-4,2.1-5.4,3.9c-1.4-1.8-3.3-3.2-5.4-3.9c-2.1-0.8-4.9-1.7-8.3-2.8l-0.2,0c-3.3-1.2-5.2,0.3-6.1,1.8
	c-0.2,0.3-0.4,0.4-1.1,0.4s-0.9-0.1-1.1-0.4c-1-1.4-2.9-2.9-6.1-1.8h-0.2c-3.3,1.1-6.1,2.1-8.2,2.8c-2.2,0.8-4.1,2.1-5.5,3.9
	c-1.4-1.8-3.3-3.2-5.4-3.9c-2.1-0.8-4.9-1.7-8.3-2.8l-0.2,0c-3.3-1.2-5.2,0.3-6.1,1.8c-0.2,0.3-0.4,0.4-1.1,0.4S23,91,22.8,90.7
	c-1-1.4-2.9-2.9-6.1-1.8L16.4,89c-3.3,1.1-6.1,2.1-8.2,2.8c-0.9,0.3-1.8,0.8-2.6,1.3V5.6H126.4z M47.8,107.8c0.1-0.9,0.7-4.7,0.9-7
	c0.1-1.2,1.1-2.9,3.6-3.8c2.1-0.7,4.8-1.7,8.1-2.8l0.2-0.1c2.6,3,7.1,3.3,10.1,0.7c0.3-0.2,0.5-0.5,0.7-0.7l0.2,0.1
	c3.2,1.1,6,2,8.1,2.8c2.4,0.9,3.5,2.6,3.6,3.8c0.2,2.2,0.8,6,0.9,7v18.5H47.8V107.8z M5.6,107.8c0.1-1,0.7-4.7,0.9-7
	c0.1-1.2,1.1-2.9,3.6-3.8c1.4-0.5,4-1.4,8.1-2.8l0.2-0.1c1.3,1.6,3.3,2.6,5.4,2.5c2.1,0.1,4.1-0.8,5.4-2.5l0.2,0.1
	c3.2,1.1,6,2,8.1,2.8c2.4,0.9,3.5,2.6,3.6,3.8c0.2,2.2,0.8,6.1,0.9,7v18.5H5.6L5.6,107.8z M89.9,126.4v-18.6c0.1-0.9,0.7-4.7,0.9-7
	c0.1-1.2,1.1-2.9,3.6-3.8c2.1-0.7,4.8-1.7,8.1-2.8l0.2-0.1c2.6,3,7.1,3.3,10.1,0.7c0.3-0.2,0.5-0.5,0.7-0.7l0.2,0.1
	c3.2,1.1,6,2,8.1,2.8c2.4,0.9,3.5,2.6,3.6,3.8c0.2,2.2,0.8,6,0.9,7v18.6L89.9,126.4z"/>
<path class="st0" d="M23.8,88.5h0.1c4.3,0,8.9-4.1,9.6-13.4c0.4-3.2-0.6-6.3-2.8-8.7c-1.1-1.2-2.5-2.1-4-2.6c0.2-1.5,0.6-4.3,0.8-6.1
	c0.1-1.2,1.1-2.9,3.6-3.8c2.8-1,6.3-2.2,8.1-2.8l0.2-0.1c1.3,1.7,3.3,2.6,5.5,2.5c2.1,0.1,4.1-0.8,5.4-2.5l0.2,0.1
	c1.8,0.6,5.3,1.8,8.1,2.8c2.4,0.9,3.5,2.6,3.6,3.8c0.2,1.8,0.6,4.6,0.8,6.2c-1.5,0.5-2.9,1.4-3.9,2.6C57,68.8,56,72,56.4,75.1
	c0.7,9.2,5.3,13.4,9.6,13.4h0.1c4.3,0,8.9-4.1,9.6-13.4c0.4-3.2-0.6-6.3-2.8-8.7c-1.1-1.2-2.5-2.1-4-2.6c0.2-1.5,0.6-4.3,0.8-6.1
	c0.1-1.2,1.1-2.9,3.6-3.8c2.8-1,6.3-2.2,8.1-2.8l0.2-0.1c2.6,3,7.1,3.3,10.1,0.7c0.3-0.2,0.5-0.5,0.7-0.7l0.2,0.1
	c1.8,0.6,5.3,1.8,8.1,2.8c2.4,0.9,3.5,2.6,3.6,3.8c0.2,1.8,0.6,4.6,0.8,6.2c-1.5,0.5-2.9,1.4-3.9,2.6c-2.1,2.4-3.1,5.6-2.8,8.7
	c0.7,9.2,5.3,13.4,9.6,13.4h0.1c4.3,0,8.9-4.1,9.6-13.4c0.4-3.2-0.6-6.3-2.8-8.7c-1.2-1.3-2.6-2.2-4.2-2.8c-0.1-1-0.7-4.6-0.9-6.7
	c-0.4-3.7-3.2-7-7.3-8.5c-2.9-1-6.4-2.2-8.3-2.8l-0.2-0.1c-3.3-1.2-5.2,0.3-6.1,1.8c-0.2,0.3-0.3,0.4-1.1,0.4s-0.9-0.1-1.1-0.4
	c-1-1.4-2.9-2.9-6.1-1.8l-0.2,0.1c-1.8,0.6-5.4,1.8-8.3,2.8c-2.1,0.8-4,2.1-5.4,3.9c-1.4-1.8-3.3-3.2-5.4-3.9
	c-2.9-1-6.4-2.2-8.3-2.8l-0.2-0.1C48.9,44.5,47,46,46,47.4c-0.2,0.3-0.4,0.4-1.1,0.4c-0.7,0-0.9-0.1-1.1-0.4c-1-1.4-2.9-2.9-6.1-1.8
	l-0.2,0.1c-1.8,0.6-5.4,1.8-8.3,2.8c-4.1,1.5-6.9,4.7-7.3,8.5c-0.2,2.1-0.8,5.7-0.9,6.7c-1.6,0.5-3,1.5-4.1,2.7
	c-2.1,2.4-3.1,5.5-2.8,8.7C14.9,84.4,19.6,88.5,23.8,88.5z M112.2,74.8c-0.4,5.6-2.6,8.2-4,8.2h0c-1.4,0-3.6-2.5-4-8.2
	c-0.3-1.6,0.2-3.3,1.2-4.5c0.7-0.8,1.7-1.3,2.8-1.4h0.1c1.1,0.1,2,0.6,2.8,1.4C112,71.5,112.5,73.1,112.2,74.8L112.2,74.8z M70,74.8
	c-0.4,5.6-2.6,8.2-4,8.2h0c-1.4,0-3.6-2.5-4-8.2c-0.3-1.6,0.2-3.3,1.2-4.5c0.7-0.8,1.7-1.3,2.8-1.4h0.1c1.1,0.1,2,0.6,2.8,1.4
	C69.9,71.5,70.3,73.1,70,74.8L70,74.8z M21.1,70.3c0.7-0.8,1.7-1.3,2.8-1.4h0.1c1.1,0.1,2,0.6,2.8,1.4c1,1.2,1.5,2.9,1.2,4.5
	c-0.4,5.6-2.6,8.2-4,8.2h-0.1c-1.4,0-3.6-2.6-4-8.2C19.6,73.1,20.1,71.5,21.1,70.3z"/>
<path class="st0" d="M44.9,45.3H45c4.3,0,8.9-4.1,9.6-13.4c0.4-3.2-0.6-6.3-2.8-8.7c-1.8-1.9-4.2-3.1-6.9-3.2h-0.1c-2.6,0.1-5.1,1.3-6.9,3.2
	c-2.1,2.4-3.1,5.6-2.8,8.7C36,41.2,40.6,45.3,44.9,45.3z M42.2,27.1c0.7-0.8,1.7-1.3,2.8-1.4H45c1.1,0.1,2,0.6,2.8,1.4
	c1,1.2,1.5,2.9,1.2,4.5c-0.4,5.6-2.6,8.2-4,8.2h-0.1c-1.4,0-3.6-2.5-4-8.2C40.7,29.9,41.1,28.3,42.2,27.1z"/>
<path class="st0" d="M87.1,45.3h0.1c4.3,0,8.9-4.1,9.6-13.4c0.4-3.2-0.6-6.3-2.8-8.7c-1.8-1.9-4.2-3.1-6.9-3.2h-0.1c-2.6,0.1-5.1,1.3-6.9,3.2
	c-2.1,2.4-3.1,5.6-2.8,8.7C78.1,41.2,82.8,45.3,87.1,45.3z M84.3,27.1c0.7-0.8,1.7-1.3,2.8-1.4h0.1c1.1,0.1,2,0.6,2.8,1.4
	c1,1.2,1.5,2.9,1.2,4.5c-0.4,5.6-2.6,8.2-4,8.2h-0.1c-1.4,0-3.6-2.5-4-8.2C82.8,29.9,83.3,28.3,84.3,27.1z"/>
</svg>
