<?xml version="1.0" encoding="utf-8"?>
<svg version="1.1" id="Layer_1" xmlns="http://www.w3.org/2000/svg" xmlns:xlink="http://www.w3.org/1999/xlink" x="0px" y="0px"
	 viewBox="0 0 132 132" style="enable-background:new 0 0 132 132;" xml:space="preserve" width="132" height="132">
<style type="text/css">
	.st0{fill:#D04A02;}
</style>
<g>
	<path class="st0" d="M5.6,126.4V60.7l13.7,8l2,10.8c0.7,3.9,2.7,7.4,5.7,10c-3.1,3-3.4,8.1-0.4,11.5l15.1,16c1.5,1.7,3.5,2.7,5.7,2.9
		c0.2,0,0.4,0,0.6,0c2,0,3.9-0.7,5.5-2l9.4-8l9.5,5.2c1.3,0.7,2.7,1.1,4,1.1c2.6,0,5.1-1.3,6.6-3.5l26.3-24c1.6-1.5,2.3-3.6,2-5.8
		c-0.3-2-1.4-3.8-3.1-4.9l0.3-8.3l17.9-15.1v71.8H5.6L5.6,126.4z M121.8,5.6L84.4,37.3l-6.7-3.2c-3.1-1.5-6.5-1.7-9.7-0.9l-4.1-2.4
		c-5.3-3.1-11.7-3.3-17.3-0.7l-9.6,4.6L5.6,16V5.6H121.8L121.8,5.6z M102.9,67l-0.3,8.1L75.8,61.3c-8-5.2-15.9-4.7-22.8,1.3
		l-9.8,8.7c-1.7,1.5-4.2,1.3-5.7-0.4c-0.7-0.8-1.1-1.9-1-2.9c0.1-1.1,0.6-2.1,1.4-2.8l28.3-24.7c2.6-2.2,6.2-2.7,9.3-1.3l9.9,4.7
		l41.1-34.8v38.1L102.9,67L102.9,67z M32.6,86.7c-3.1-1.7-5.2-4.7-5.8-8.2l-2.4-13.3l-18.8-11V22.6l31.2,18.6l12.3-5.9
		c3.8-1.8,8.3-1.7,12,0.5l1.1,0.7L34.1,61c-1.9,1.7-3.1,4.1-3.3,6.6c-0.2,2.6,0.7,5.1,2.4,7c3.5,4,9.6,4.4,13.7,0.9l9.8-8.7
		c5-4.3,10.2-4.6,16.1-0.8l32.3,16.5c0.5,0.3,0.6,0.7,0.6,0.9c0,0.2,0,0.7-0.3,1L78.6,109l-0.2,0.4c-0.7,1.1-2.1,1.5-3.3,0.8
		L32.6,86.7L32.6,86.7z M31,93.4l0.9-0.8l25.8,14.3l-7.8,6.7c-0.5,0.5-1.3,0.7-2,0.7c-0.7-0.1-1.4-0.4-2-1l-15.1-16
		C29.7,96.1,29.9,94.4,31,93.4L31,93.4z M132,0H0v132h132l0,0V0L132,0L132,0z"/>
</g>
</svg>
