<?xml version="1.0" encoding="utf-8"?>
<svg version="1.1" id="Layer_1" xmlns="http://www.w3.org/2000/svg" xmlns:xlink="http://www.w3.org/1999/xlink" x="0px" y="0px"
	 viewBox="0 0 132 132" style="enable-background:new 0 0 132 132;" xml:space="preserve" width="132" height="132">
<style type="text/css">
	.st0{fill:#D04A02;}
</style>
<g>
	<path class="st0" d="M34.5,126.4c17.2-5.1,38.8-15,57.6-33.7c19.1-19.1,29.1-41.3,34.3-58.8v92.5H34.5L34.5,126.4z M97.5,5.6
		c-17.2,5.1-38.8,15-57.6,33.7c-3.4,3.4-6.5,6.9-9.4,10.5h-0.3v0.3c-13,16.3-20.4,33.7-24.6,48V5.6H97.5L97.5,5.6z M116.8,43.9h-25
		l33.9-33.9C124.6,17.5,122.3,29.9,116.8,43.9L116.8,43.9z M103.4,69.9H65.8l20.3-20.3h28.3C111.6,56.2,107.9,63.1,103.4,69.9
		L103.4,69.9z M80.2,95.8H39.9l20.3-20.3h39.2c-3.4,4.5-7.1,8.9-11.3,13.1C85.5,91.2,82.9,93.6,80.2,95.8L80.2,95.8z M34.2,101.5
		h38.7c-24.5,17.5-50.6,22.7-62.9,24.2L34.2,101.5L34.2,101.5z M30.3,97.5L6.4,121.3c1.7-12.5,7.2-37.8,23.8-61.7V97.5L30.3,97.5z
		 M82.2,45.6L61.8,65.9V28.6c6.8-4.6,13.7-8.2,20.3-11.2V45.6L82.2,45.6z M121.4,6.4L87.8,40V15.1C101.6,9.7,113.9,7.3,121.4,6.4
		L121.4,6.4z M43.9,43.3c4-4,8.1-7.5,12.3-10.7v38.9L35.9,91.9V52.2C38.4,49.2,41,46.2,43.9,43.3L43.9,43.3z M0,0v132h132V0H0L0,0z"
		/>
</g>
</svg>
