<?xml version="1.0" encoding="utf-8"?>
<svg version="1.1" id="Layer_1" xmlns="http://www.w3.org/2000/svg" xmlns:xlink="http://www.w3.org/1999/xlink" x="0px" y="0px"
	 viewBox="0 0 132 132" style="enable-background:new 0 0 132 132;" xml:space="preserve" width="132" height="132">
<style type="text/css">
	.st0{fill:#D04A02;}
</style>
<title>dashboard</title>
<path class="st0" d="M16.6,43.9H22v5.8h-5.4V43.9z M38.6,21.9H44v27.7h-5.4V21.9z M60.6,33.1H66v16.6h-5.4V33.1z M27.4,55h55.2v-5.4H71.4V27.3
	H55.2v22.3h-5.8V16.5H32.8v33.1h-5.4V38.5H10.8v11.2H0V55H27.4L27.4,55z"/>
<path class="st0" d="M66.1,85.2c0-10.6,8.6-19.2,19.2-19.2c5.1,0,10,2,13.6,5.7c7.5,7.4,7.6,19.5,0.2,27c-0.1,0.1-0.1,0.1-0.2,0.2
	c-3.6,3.7-8.5,5.7-13.6,5.7c-4.1,0-8.2-1.4-11.5-3.9l14.2-14.2v7.1h5.5V77H77.1v5.5h7.1L70,96.7C67.5,93.4,66.1,89.3,66.1,85.2z
	 M0,0v43.9h5.5V5.5h121v120.9H20.4l26.3-26.3l13.9,13.7l9.4-9.4c8.9,7.3,21.8,7.3,30.7,0l15.7,15.7l3.9-3.9l-15.7-15.7
	c7.9-9.8,7.1-24-1.8-32.9c-9.5-9.8-25.1-10-34.9-0.5c-9.2,9-10,23.5-1.8,33.4l-5.5,5.5L46.7,92.3l-34.1,34H5.5V60.5H0V132h132V0H0z"
	/>
<rect class="st0" x="77.2" y="16.5" width="27.4" height="5.4"/>
<rect class="st0" x="110" y="16.5" width="5.4" height="5.4"/>
<rect class="st0" x="98.8" y="27.3" width="16.6" height="5.8"/>
<rect class="st0" x="82.6" y="27.3" width="10.8" height="5.8"/>
<rect class="st0" x="27.4" y="65.8" width="27.8" height="5.8"/>
<rect class="st0" x="16.6" y="65.8" width="5.4" height="5.8"/>
<rect class="st0" x="16.6" y="77" width="16.2" height="5.4"/>
<rect class="st0" x="38.6" y="77" width="10.8" height="5.4"/>
</svg>
