<svg xmlns="http://www.w3.org/2000/svg" viewBox="0 0 200 70.37"><defs><style>.cls-1{isolation:isolate;}.cls-2{fill:#fff;}.cls-3{fill:#e66aa3;}.cls-3,.cls-4,.cls-5,.cls-6,.cls-7{mix-blend-mode:multiply;}.cls-4{fill:#f3bc87;}.cls-5{fill:#ef9d35;}.cls-6{fill:#f3be25;}.cls-7{fill:#e3c7a7;}.cls-8{fill:#ad1e17;}.cls-14,.cls-9{fill:#1d1d1b;}.cls-10{fill:#fab31e;}.cls-10,.cls-11,.cls-12,.cls-13,.cls-14{fill-rule:evenodd;}.cls-11,.cls-17{fill:#009640;}.cls-12,.cls-18{fill:#0079c2;}.cls-13,.cls-16{fill:#e62644;}.cls-15{fill:#d7c47b;}</style></defs><g class="cls-1"><g id="Calque_1" data-name="Calque 1"><rect class="cls-2" width="200" height="70.37"/><path d="M109.57,38.83c-1.68.27-2.54,1.51-2.54,3.7s1.15,3.67,2.9,3.67a7.09,7.09,0,0,0,3.13-1v1.78a9.67,9.67,0,0,1-4.49,1.13,4.82,4.82,0,0,1-3.73-1.39A5,5,0,0,1,103.4,43c0-3.15,2.33-5.28,5.74-5.28,2.26,0,3.82,1,3.82,2.55a1.64,1.64,0,0,1-1.8,1.65,3,3,0,0,1-1.59-.48Z"/><path d="M101.27,43c1.51-1.9,2-2.67,2-3.6a1.68,1.68,0,0,0-1.72-1.68,2,2,0,0,0-1.42.58v3.88L97.69,45.5V38H95.34l-3.9,6.48V38H90.09l-3.55.87v.9l1.93.2V47.9H91l3.75-6.16V47.9h2.74Z"/><path d="M79.07,46.68h.55c2,0,3.1-1.25,3.1-3.66,0-2-.89-3.12-2.52-3.12a9.69,9.69,0,0,0-1.13.1Zm0,4.34,1.62.36v.92H74.33v-.92L75.78,51V39.91H74.17V39l3.89-1.18h1V39.1c1.82-1.09,2.45-1.28,3.38-1.28,2.16,0,3.76,2,3.76,4.75,0,3.19-2.13,5.33-5.48,5.33a14.28,14.28,0,0,1-1.66-.1Z"/><rect class="cls-3" x="107.44" y="24.79" width="19.02" height="4.87"/><rect class="cls-4" x="107.44" y="14.52" width="11.62" height="15.14"/><rect class="cls-5" x="107.44" y="12.61" width="9.71" height="17.04"/><rect class="cls-6" x="107.44" y="17.48" width="16.55" height="12.18"/><rect class="cls-7" x="107.44" y="22.35" width="6.07" height="7.31"/><rect class="cls-8" x="97.7" y="29.66" width="9.74" height="2.43"/><path class="cls-9" d="M69.24,60.58h1.17c.91,0,1.53.31,1.53,1.2S71.32,63,70.43,63h-.67v1.62h-.52Zm1.12,2c.72,0,1.06-.26,1.06-.84S71.06,61,70.34,61h-.58v1.62Z"/><path class="cls-9" d="M73.6,60.58h.59l1.38,4.08H75l-.71-2.28c-.15-.45-.28-.9-.41-1.37h0c-.12.47-.25.92-.4,1.37l-.72,2.28h-.53ZM73,63h1.88v.42H73Z"/><path class="cls-9" d="M76.43,60.58h1.28c.83,0,1.43.3,1.43,1.15s-.6,1.21-1.43,1.21H77v1.72h-.52Zm1.21,1.93c.63,0,1-.25,1-.78s-.35-.73-1-.73H77v1.51Zm0,.28.41-.26,1.24,2.13h-.59Z"/><path class="cls-9" d="M81.05,61H79.81v-.44h3V61H81.57v3.64h-.52Z"/><path class="cls-9" d="M83.84,60.58H86.2V61H84.36V62.3h1.55v.44H84.36v1.48h1.9v.44H83.84Z"/><path class="cls-9" d="M87.43,60.58H88l1.48,2.57.44.84h0c0-.41-.07-.87-.07-1.3V60.58h.49v4.08h-.53l-1.48-2.57-.44-.84h0c0,.41.07.85.07,1.28v2.13h-.5Z"/><path class="cls-9" d="M92.61,60.58h.59l1.38,4.08H94l-.71-2.28c-.15-.45-.28-.9-.41-1.37h0c-.12.47-.25.92-.4,1.37l-.72,2.28h-.53ZM92,63h1.88v.42H92Z"/><path class="cls-9" d="M95.44,60.58H96v4.08h-.52Z"/><path class="cls-9" d="M97.39,60.58h1.28c.83,0,1.43.3,1.43,1.15s-.6,1.21-1.43,1.21h-.76v1.72h-.52Zm1.21,1.93c.63,0,1-.25,1-.78s-.35-.73-1-.73h-.69v1.51Zm0,.28.41-.26,1.24,2.13h-.59Z"/><path class="cls-9" d="M101.24,60.58h2.36V61h-1.84V62.3h1.55v.44h-1.55v1.48h1.9v.44h-2.42Z"/><path class="cls-9" d="M106.15,62.61c0-1.31.72-2.11,1.75-2.11s1.74.8,1.74,2.11-.72,2.13-1.74,2.13S106.15,63.91,106.15,62.61Zm3,0c0-1-.48-1.65-1.21-1.65s-1.21.63-1.21,1.65.48,1.67,1.21,1.67S109.11,63.62,109.11,62.61Z"/><path class="cls-9" d="M110.83,60.58h2.36V61h-1.84V62.4h1.56v.44h-1.56v1.82h-.52Z"/><path class="cls-9" d="M114.22,60.58h2.35V61h-1.83V62.4h1.55v.44h-1.55v1.82h-.52Z"/><path class="cls-9" d="M117.6,60.58h.52v4.08h-.52Z"/><path class="cls-9" d="M119.31,62.62a1.88,1.88,0,0,1,1.82-2.12,1.5,1.5,0,0,1,1.12.51l-.28.34a1.13,1.13,0,0,0-.83-.39c-.78,0-1.29.63-1.29,1.65s.49,1.67,1.27,1.67a1.21,1.21,0,0,0,.94-.46l.29.33a1.62,1.62,0,0,1-1.26.59C120.08,64.74,119.31,64,119.31,62.62Z"/><path class="cls-9" d="M123.42,60.58h.52v4.08h-.52Z"/><path class="cls-9" d="M125.36,60.58h2.36V61h-1.84V62.3h1.55v.44h-1.55v1.48h1.9v.44h-2.42Z"/><path class="cls-9" d="M129,60.58h.52v3.64h1.79v.44H129Z"/><path class="cls-9" d="M7,43a2.87,2.87,0,0,0-1.23-.2H4.34V48h.81a2,2,0,0,1,.11-.88,2,2,0,0,1,1.1-.86,3.06,3.06,0,0,0,1.24-.85,1.82,1.82,0,0,0,.26-1.31A1.59,1.59,0,0,0,7,43Zm0,2a2,2,0,0,1-.82.61,4.36,4.36,0,0,0-.95.57V43.54h.77A1.06,1.06,0,0,1,7,44.12,1,1,0,0,1,6.92,45Z"/><path class="cls-9" d="M12.94,42.93a1.89,1.89,0,0,0-2.26.33,1.77,1.77,0,0,0-.42,1.08c0,.1,0,3.68,0,3.68h.8V46.28a2,2,0,0,1,1.4.28,1.31,1.31,0,0,1,.52,1.1V48h.8V44.51A1.75,1.75,0,0,0,12.94,42.93Zm0,3.12a2.2,2.2,0,0,0-1.87-.55v-.85a1.83,1.83,0,0,1,0-.47.89.89,0,0,1,.59-.63,1,1,0,0,1,.91.13,1,1,0,0,1,.38.8V46.1S13,46.07,12.93,46.05Z"/><path class="cls-9" d="M19.32,46.07A1.88,1.88,0,0,0,19,46a2.18,2.18,0,0,0,.69-.55,1.49,1.49,0,0,0,.3-.75,1.57,1.57,0,0,0-.6-1.47,3.42,3.42,0,0,0-2.16-.39h-.77V48h.81v-.47a1.05,1.05,0,0,1,.47-.86,1.11,1.11,0,0,1,1-.06,1,1,0,0,1,.57.78,4.15,4.15,0,0,1,0,.61h.82a4.1,4.1,0,0,0-.05-.86A1.63,1.63,0,0,0,19.32,46.07Zm-1.23-2.53a1,1,0,0,1,1.1.82,1,1,0,0,1-.22.75,2.28,2.28,0,0,1-.76.5,3.78,3.78,0,0,0-.92.56V43.54Z"/><path class="cls-9" d="M22.72,43.52a3.69,3.69,0,0,1,.81-.12v-.61h-.81Z"/><path class="cls-9" d="M22.72,44v4h.81V43.86A3.69,3.69,0,0,0,22.72,44Z"/><path class="cls-9" d="M29,45.51A3.6,3.6,0,0,0,28,45a2.23,2.23,0,0,1-.92-.5.63.63,0,0,1,.05-.85.9.9,0,0,1,.89-.19.78.78,0,0,1,.55.76h.8a1.46,1.46,0,0,0-.39-1,1.57,1.57,0,0,0-1-.49,1.74,1.74,0,0,0-1.12.2,1.45,1.45,0,0,0-.7.82,1.35,1.35,0,0,0,.09,1.06,1.73,1.73,0,0,0,.89.71,6,6,0,0,1,1.18.52.68.68,0,0,1,.3.39.74.74,0,0,1-.05.51.94.94,0,0,1-1,.41.89.89,0,0,1-.74-.88H26a1.53,1.53,0,0,0,.45,1.13,1.8,1.8,0,0,0,1.14.5,1.88,1.88,0,0,0,1.26-.31,1.5,1.5,0,0,0,.61-1A1.36,1.36,0,0,0,29,45.51Z"/><path class="cls-9" d="M36.53,45.62A3.43,3.43,0,0,0,37,44.9a1.58,1.58,0,0,0,.13-.83,1.55,1.55,0,0,0-.92-1.21,1.9,1.9,0,0,0-1.6,0,1.54,1.54,0,0,0-.87,1.28,1.63,1.63,0,0,0,.68,1.41l.46-.58a1,1,0,0,1-.33-.58.8.8,0,0,1,.13-.62,1,1,0,0,1,1.18-.27.85.85,0,0,1,.43.48,1,1,0,0,1,0,.67,3.12,3.12,0,0,1-.39.56l-1.63,2-.58.73h3.68v-.75H35.21Z"/><path class="cls-9" d="M44.18,43.49A2.8,2.8,0,0,0,41.07,43a2.69,2.69,0,0,0,.46,5,2.8,2.8,0,0,0,3-1.06,2.72,2.72,0,0,0-.05-3.16A2.55,2.55,0,0,0,44.18,43.49ZM44,46.15A1.9,1.9,0,0,1,40.42,46a2,2,0,0,1,.68-2.12,1.91,1.91,0,0,1,2.21-.05A2,2,0,0,1,44,46.15Z"/><path class="cls-9" d="M50.15,45.62a3.43,3.43,0,0,0,.47-.72,1.58,1.58,0,0,0,.13-.83,1.55,1.55,0,0,0-.92-1.21,1.9,1.9,0,0,0-1.6,0,1.54,1.54,0,0,0-.87,1.28A1.63,1.63,0,0,0,48,45.59L48.5,45a1,1,0,0,1-.33-.58.8.8,0,0,1,.13-.62,1,1,0,0,1,1.18-.27.85.85,0,0,1,.43.48,1,1,0,0,1,0,.67,3.12,3.12,0,0,1-.39.56l-1.63,2-.58.73h3.68v-.75H48.83Z"/><path class="cls-9" d="M55.88,44.19V46c-.39-.28-.87-.36-1.28-.6a1.05,1.05,0,0,1-.46-1v-1.6h-.81v1.63a1.77,1.77,0,0,0,.59,1.46,3.32,3.32,0,0,0,1,.48,1.71,1.71,0,0,1,.82.48,1,1,0,0,1,.18.69V48h.78V44.19Z"/><path class="cls-10" d="M30.14,61a4.3,4.3,0,1,1-4.29-4.3A4.3,4.3,0,0,1,30.14,61m-4.29-3.58A3.58,3.58,0,1,0,29.43,61a3.58,3.58,0,0,0-3.58-3.58"/><path class="cls-11" d="M39.45,61a4.3,4.3,0,1,1-4.3-4.3,4.3,4.3,0,0,1,4.3,4.3m-4.3-3.58A3.58,3.58,0,1,0,38.73,61a3.58,3.58,0,0,0-3.58-3.58"/><path class="cls-12" d="M21.19,52.73a4.3,4.3,0,0,0,0,8.59l.37,0c0-.11,0-.23,0-.34s0-.25,0-.38l-.38,0a3.58,3.58,0,1,1,1.12-.18,3.27,3.27,0,0,0,0,.54v.22a4.29,4.29,0,0,0-1.08-8.45"/><path class="cls-13" d="M39.81,52.73a4.29,4.29,0,0,0-4.28,4,4.21,4.21,0,0,1,.71.12,3.56,3.56,0,1,1,0,.76,3.76,3.76,0,0,0-.74-.16,4.29,4.29,0,1,0,4.28-4.67"/><path class="cls-14" d="M30.5,52.73a4.29,4.29,0,0,0-4.28,4,4.21,4.21,0,0,1,.71.12,3.58,3.58,0,1,1,4.69,3.62,3.29,3.29,0,0,0-.05.54c0,.07,0,.15,0,.22a4.29,4.29,0,0,0-1.08-8.45"/><path class="cls-14" d="M30.86,61a2.42,2.42,0,0,1,0-.38l-.38,0a3.58,3.58,0,0,1-3.54-3,3.61,3.61,0,0,0-.74-.16,4.31,4.31,0,0,0,4.28,3.92l.37,0c0-.11,0-.23,0-.34"/><path class="cls-15" d="M32.34,33.82a1.93,1.93,0,0,0-1.84.34,1.93,1.93,0,0,0-1.84-.34,2.9,2.9,0,0,1-1.23.23,3.41,3.41,0,0,0,6.14,0A2.9,2.9,0,0,1,32.34,33.82Z"/><path class="cls-15" d="M30.5,5.11a16.75,16.75,0,0,0-3.84,33.05,12.57,12.57,0,0,1-5.44-16.4,7.88,7.88,0,0,0,4.34,5.62A16.76,16.76,0,0,1,31,7.34c-1.23,4.22.65,8.07,4.71,11a8.93,8.93,0,0,1,.74,13.8,7.86,7.86,0,0,0,4.27-2.65,12.57,12.57,0,0,1-6.4,8.69,16.75,16.75,0,0,0-3.84-33Z"/><path class="cls-15" d="M42.71,37.06H43v1.1h.15v-1.1h.32v-.14h-.79Zm2.19-.14a.56.56,0,0,0-.52.27.56.56,0,0,0-.52-.27h-.08v1.24h.15V37.07h0a.36.36,0,0,1,.36.4v.31h.16v-.31a.36.36,0,0,1,.36-.4h0v1.09H45V36.92Z"/><path class="cls-9" d="M146,43a2.87,2.87,0,0,0-1.23-.2h-1.39V48h.81a1.5,1.5,0,0,1,1.21-1.74,3.06,3.06,0,0,0,1.24-.85,1.82,1.82,0,0,0,.26-1.31A1.59,1.59,0,0,0,146,43Zm0,2a2,2,0,0,1-.82.61,4.36,4.36,0,0,0-.95.57V43.54h.77a1.06,1.06,0,0,1,1.08.58A1,1,0,0,1,145.92,45Z"/><path class="cls-9" d="M151.94,42.93a1.89,1.89,0,0,0-2.26.33,1.77,1.77,0,0,0-.42,1.08c0,.1,0,3.68,0,3.68h.8V46.28a2,2,0,0,1,1.4.28,1.31,1.31,0,0,1,.52,1.1V48h.8V44.51A1.75,1.75,0,0,0,151.94,42.93Zm0,3.12a2.2,2.2,0,0,0-1.87-.55v-.85a1.83,1.83,0,0,1,0-.47.89.89,0,0,1,.59-.63,1,1,0,0,1,.91.13,1,1,0,0,1,.38.8V46.1Z"/><path class="cls-9" d="M158.32,46.07A1.88,1.88,0,0,0,158,46a2.18,2.18,0,0,0,.69-.55,1.49,1.49,0,0,0,.3-.75,1.57,1.57,0,0,0-.6-1.47,3.43,3.43,0,0,0-2.16-.39h-.77V48h.81v-.47a1.05,1.05,0,0,1,.47-.86,1.11,1.11,0,0,1,1-.06,1,1,0,0,1,.57.78,4.15,4.15,0,0,1,0,.61h.82a4.1,4.1,0,0,0-.05-.86A1.63,1.63,0,0,0,158.32,46.07Zm-1.23-2.53a1,1,0,0,1,1.09.82,1,1,0,0,1-.21.75,2.28,2.28,0,0,1-.76.5,3.78,3.78,0,0,0-.92.56V43.54Z"/><path class="cls-9" d="M161.72,43.52a3.69,3.69,0,0,1,.81-.12v-.61h-.81Z"/><path class="cls-9" d="M161.72,44v4h.81V43.86A3.69,3.69,0,0,0,161.72,44Z"/><path class="cls-9" d="M168,45.51a3.6,3.6,0,0,0-1-.49,2.23,2.23,0,0,1-.92-.5.63.63,0,0,1,0-.85.9.9,0,0,1,.89-.19.78.78,0,0,1,.55.76h.8a1.46,1.46,0,0,0-.39-1,1.57,1.57,0,0,0-1-.49,1.74,1.74,0,0,0-1.12.2,1.45,1.45,0,0,0-.7.82,1.35,1.35,0,0,0,.09,1.06,1.73,1.73,0,0,0,.89.71,6,6,0,0,1,1.18.52.68.68,0,0,1,.3.39.74.74,0,0,1-.05.51.94.94,0,0,1-1,.41.89.89,0,0,1-.74-.88H165a1.53,1.53,0,0,0,.45,1.13,1.8,1.8,0,0,0,1.14.5,1.88,1.88,0,0,0,1.26-.31,1.45,1.45,0,0,0,.6-1A1.33,1.33,0,0,0,168,45.51Z"/><path class="cls-9" d="M175.53,45.62a3.43,3.43,0,0,0,.47-.72,1.58,1.58,0,0,0,.13-.83,1.55,1.55,0,0,0-.92-1.21,1.9,1.9,0,0,0-1.6,0,1.54,1.54,0,0,0-.87,1.28,1.63,1.63,0,0,0,.68,1.41l.46-.58a1,1,0,0,1-.33-.58.8.8,0,0,1,.13-.62,1,1,0,0,1,1.18-.27.85.85,0,0,1,.43.48,1,1,0,0,1,0,.67,3.12,3.12,0,0,1-.39.56l-1.63,2-.58.73h3.68v-.75h-2.11Z"/><path class="cls-9" d="M183.18,43.49a2.8,2.8,0,0,0-3.11-.53,2.69,2.69,0,0,0,.46,5,2.8,2.8,0,0,0,3-1.06,2.72,2.72,0,0,0-.05-3.16A2.55,2.55,0,0,0,183.18,43.49ZM183,46.15a1.9,1.9,0,0,1-1.87,1.18,1.93,1.93,0,0,1-1.7-1.36,2,2,0,0,1,.68-2.12,1.91,1.91,0,0,1,2.21-.05A2,2,0,0,1,183,46.15Z"/><path class="cls-9" d="M189.15,45.62a3.43,3.43,0,0,0,.47-.72,1.58,1.58,0,0,0,.13-.83,1.55,1.55,0,0,0-.92-1.21,1.9,1.9,0,0,0-1.6,0,1.54,1.54,0,0,0-.87,1.28,1.63,1.63,0,0,0,.68,1.41l.46-.58a1,1,0,0,1-.33-.58.8.8,0,0,1,.13-.62,1,1,0,0,1,1.18-.27.85.85,0,0,1,.43.48.92.92,0,0,1-.06.67,2.63,2.63,0,0,1-.38.56l-1.63,2-.58.73h3.68v-.75h-2.11Z"/><path class="cls-9" d="M194.88,44.19V46c-.39-.28-.87-.36-1.28-.6a1.05,1.05,0,0,1-.46-1v-1.6h-.81v1.63a1.77,1.77,0,0,0,.59,1.46,3.32,3.32,0,0,0,1,.48,1.75,1.75,0,0,1,.82.48,1,1,0,0,1,.18.69V48h.78V44.19Z"/><path class="cls-16" d="M168.65,52.84a6.48,6.48,0,0,0-4.46.93c-2.47,1.43-3.77,3.78-2.92,5.25.55.95,1.84,1.31,3.35,1.07a2.3,2.3,0,0,1-1.55-1c-.85-1.47.46-3.82,2.92-5.25a7.8,7.8,0,0,1,2.66-1"/><path class="cls-17" d="M168.67,58.67a6.54,6.54,0,0,0,3,3.39c2.46,1.42,5.15,1.38,6-.1.55-.94.21-2.25-.74-3.43a2.3,2.3,0,0,1-.13,1.85c-.85,1.48-3.54,1.53-6,.1a7.72,7.72,0,0,1-2.17-1.81"/><path class="cls-18" d="M167,55.77a6.49,6.49,0,0,0-1.42,4.33c0,2.84,1.38,5.15,3.09,5.15,1.09,0,2.05-.94,2.6-2.37a2.3,2.3,0,0,1-1.67.82c-1.71,0-3.09-2.3-3.09-5.15a7.78,7.78,0,0,1,.49-2.78"/><path class="cls-15" d="M171.34,33.82a1.93,1.93,0,0,0-1.84.34,1.93,1.93,0,0,0-1.84-.34,2.9,2.9,0,0,1-1.23.23,3.41,3.41,0,0,0,6.14,0A2.9,2.9,0,0,1,171.34,33.82Z"/><path class="cls-15" d="M169.5,5.11a16.75,16.75,0,0,0-3.84,33.05,12.57,12.57,0,0,1-5.44-16.4,7.88,7.88,0,0,0,4.34,5.62,16.76,16.76,0,0,1,5.46-20c-1.24,4.22.65,8.07,4.71,11a8.93,8.93,0,0,1,.74,13.8,7.86,7.86,0,0,0,4.27-2.65,12.57,12.57,0,0,1-6.4,8.69,16.75,16.75,0,0,0-3.84-33Z"/><path class="cls-15" d="M181.71,37.06H182v1.1h.15v-1.1h.31v-.14h-.78Zm2.18-.14a.55.55,0,0,0-.51.27.56.56,0,0,0-.52-.27h-.08v1.24h.15V37.07h0a.36.36,0,0,1,.36.4v.31h.15v-.31a.37.37,0,0,1,.37-.4h0v1.09H184V36.92Z"/></g></g></svg>