<?xml version="1.0" encoding="UTF-8"?><svg xmlns="http://www.w3.org/2000/svg" viewBox="0 0 355 353"><defs><style>.cls-1{fill:#464646;}.cls-1,.cls-2,.cls-3,.cls-4,.cls-5,.cls-6,.cls-7{fill-rule:evenodd;}.cls-8{fill:#fff;}.cls-2{fill:#7d7d7d;}.cls-3{fill:#db536a;}.cls-4{fill:#ffb600;}.cls-5{fill:#bfbfbf;}.cls-6{fill:#eb8c00;}</style></defs><g id="Calque_2"><circle class="cls-8" cx="177.72" cy="176.28" r="168.65"/></g><g id="a"><path class="cls-7" d="M181.02,176.3c0,1.76-1.36,3.13-3.13,3.13s-3.13-1.36-3.13-3.13,1.36-3.13,3.13-3.13,3.13,1.36,3.13,3.13Zm-3.13-5.13c-2.81,0-5.13,2.32-5.13,5.13s2.32,5.13,5.13,5.13,5.13-2.32,5.13-5.13-2.32-5.13-5.13-5.13Z"/><path class="cls-7" d="M191.27,176.3c0,7.41-5.96,13.38-13.38,13.38s-13.38-5.96-13.38-13.38,5.96-13.38,13.38-13.38,13.38,5.96,13.38,13.38Zm2.01,0c0-4.11-1.61-7.98-4.51-10.88-2.9-2.9-6.77-4.51-10.88-4.51s-7.98,1.61-10.88,4.51-4.51,6.77-4.51,10.88c0,3.71,1.37,7.33,3.87,10.15l-2.58,2.58,1.37,1.37,2.58-2.58c2.82,2.5,6.45,3.87,10.15,3.87s7.33-1.37,10.15-3.87l2.58,2.58,1.37-1.37h.08l-2.66-2.58c2.5-2.82,3.87-6.45,3.87-10.15h0Z"/><path class="cls-7" d="M186.46,176.3c0,4.74-3.83,8.57-8.57,8.57s-8.57-3.83-8.57-8.57,3.83-8.57,8.57-8.57,8.57,3.83,8.57,8.57h0Zm-8.57-10.56c-5.82,0-10.56,4.74-10.56,10.56s4.74,10.56,10.56,10.56,10.56-4.74,10.56-10.56-4.74-10.56-10.56-10.56Z"/><path class="cls-7" d="M199.32,197.73h-42.85v-42.85h42.85v42.85h0Zm-44.66-44.66v46.47h46.47v-46.47h-46.47Z"/><path class="cls-5" d="M161.32,116.71c4.37-1.09,8.19-1.64,12.01-1.64V16.11c-55.68,1.64-104.81,31.71-132.11,76.54l85.16,49.21c8.19-12.03,20.74-21.32,34.94-25.15h0Z"/><path class="cls-4" d="M228.88,141.86l85.39-49.21c-27.37-44.83-76.63-74.9-132.46-76.54V115.07c9.31,.55,18.61,3.28,26.82,7.65,8.21,4.92,15.33,11.48,20.25,19.14Z"/><path class="cls-1" d="M126.32,210.04l-85.81,49.82c27.87,44.89,76.52,75,132.82,76.64v-98.54c-9.29-.55-18.58-3.28-26.78-8.21-8.75-4.93-15.3-11.5-20.22-19.71h-.01Z"/><path class="cls-2" d="M233.22,203.61l85.53,49.16c12.06-22.4,19.19-48.62,19.19-76.47s-7.13-54.08-19.19-76.47l-86.07,49.16c2.19,3.82,3.29,7.65,4.39,11.47,4.39,14.75,2.74,29.5-3.84,43.15h-.01Z"/><path class="cls-3" d="M122.46,148.99L36.67,99.83c-12.02,22.4-19.12,48.62-19.12,76.47s6.56,54.08,19.12,76.47l85.24-49.16c-8.2-16.93-8.74-37.14,.55-54.62h0Z"/><path class="cls-6" d="M193.86,235.76c-4.38,1.09-8.22,1.64-12.06,2.19v98.54c56.45-1.64,105.22-31.75,133.17-76.64l-86.04-49.82c-8.22,12.59-20.28,21.9-35.07,25.73h0Z"/><g><path d="M79.44,74.52v-7.14h-2.55v-1.45h6.83v1.45h-2.54v7.14h-1.74Z"/><path d="M85.74,74.52h-1.65v-6.22h1.53v.88c.26-.42,.5-.69,.71-.83s.45-.2,.71-.2c.38,0,.74,.1,1.08,.31l-.51,1.44c-.28-.18-.54-.27-.77-.27s-.43,.06-.59,.19-.29,.36-.38,.69-.14,1.03-.14,2.09v1.92h.01Z"/><path d="M90.06,70.2l-1.49-.27c.17-.6,.46-1.05,.87-1.34s1.02-.43,1.83-.43c.73,0,1.28,.09,1.64,.26s.61,.39,.76,.66,.22,.76,.22,1.47l-.02,1.92c0,.55,.03,.95,.08,1.21s.15,.54,.3,.83h-1.63c-.04-.11-.1-.27-.16-.49-.03-.1-.05-.16-.06-.19-.28,.27-.58,.48-.9,.62s-.66,.21-1.03,.21c-.64,0-1.15-.17-1.51-.52s-.55-.79-.55-1.32c0-.35,.08-.67,.25-.94s.4-.49,.71-.63,.74-.27,1.31-.38c.77-.14,1.3-.28,1.6-.4v-.16c0-.32-.08-.54-.23-.68s-.45-.2-.88-.2c-.29,0-.52,.06-.69,.17s-.3,.32-.4,.61h-.02Zm2.2,1.33c-.21,.07-.54,.15-1,.25s-.76,.19-.9,.29c-.21,.15-.32,.35-.32,.58s.09,.43,.26,.6,.39,.25,.66,.25c.3,0,.58-.1,.85-.29,.2-.15,.33-.33,.39-.54,.04-.14,.06-.41,.06-.8v-.33h0Z"/><path d="M101.17,74.52h-1.65v-3.18c0-.67-.04-1.11-.11-1.3s-.18-.35-.34-.46-.35-.16-.57-.16c-.29,0-.54,.08-.77,.23s-.38,.36-.47,.62-.13,.73-.13,1.43v2.82h-1.65v-6.22h1.53v.91c.54-.7,1.23-1.05,2.05-1.05,.36,0,.7,.07,1,.2s.53,.3,.68,.5,.26,.43,.32,.69,.09,.63,.09,1.11v3.87h.02Z"/><path d="M102.26,72.75l1.65-.25c.07,.32,.21,.56,.43,.73s.52,.25,.9,.25c.43,0,.75-.08,.96-.23,.14-.11,.22-.26,.22-.44,0-.12-.04-.23-.12-.31-.08-.08-.27-.15-.55-.22-1.33-.29-2.17-.56-2.53-.8-.49-.34-.74-.8-.74-1.4,0-.54,.21-.99,.64-1.36s1.09-.55,1.98-.55,1.48,.14,1.9,.42,.7,.69,.86,1.23l-1.55,.29c-.07-.24-.19-.43-.38-.56s-.45-.19-.79-.19c-.43,0-.74,.06-.93,.18-.12,.09-.19,.2-.19,.33,0,.12,.05,.22,.16,.3,.15,.11,.66,.26,1.54,.46s1.49,.44,1.84,.73c.34,.29,.52,.7,.52,1.22,0,.57-.24,1.06-.71,1.47s-1.18,.62-2.12,.62c-.85,0-1.52-.17-2.01-.52s-.82-.81-.97-1.4h-.01Z"/><path d="M108.79,68.3h.91v-.47c0-.52,.06-.91,.17-1.17s.32-.47,.62-.63,.68-.24,1.13-.24,.93,.07,1.38,.21l-.22,1.15c-.26-.06-.51-.09-.76-.09s-.41,.06-.51,.17-.16,.33-.16,.64v.44h1.23v1.29h-1.23v4.93h-1.65v-4.93h-.91v-1.29h0Z"/><path d="M113.13,71.32c0-.55,.13-1.08,.4-1.59s.65-.9,1.15-1.17,1.05-.4,1.66-.4c.94,0,1.71,.31,2.31,.92s.9,1.38,.9,2.32-.3,1.72-.91,2.34-1.37,.93-2.29,.93c-.57,0-1.11-.13-1.63-.39s-.91-.64-1.18-1.13-.4-1.1-.4-1.82h0Zm1.69,.08c0,.62,.15,1.09,.44,1.42s.65,.49,1.08,.49,.79-.16,1.08-.49,.44-.8,.44-1.43-.15-1.08-.44-1.41-.65-.49-1.08-.49-.79,.16-1.08,.49-.44,.8-.44,1.42Z"/><path d="M122.41,74.52h-1.65v-6.22h1.53v.88c.26-.42,.5-.69,.71-.83s.45-.2,.71-.2c.38,0,.74,.1,1.08,.31l-.51,1.44c-.28-.18-.54-.27-.77-.27s-.43,.06-.59,.19-.29,.36-.38,.69-.14,1.03-.14,2.09v1.92h.01Z"/><path d="M125.39,68.3h1.52v.85c.54-.66,1.19-.99,1.94-.99,.4,0,.74,.08,1.04,.25s.53,.41,.72,.74c.27-.33,.57-.58,.88-.74s.65-.25,1.01-.25c.46,0,.84,.09,1.16,.28s.55,.46,.71,.82c.11,.27,.17,.7,.17,1.29v3.98h-1.65v-3.56c0-.62-.06-1.02-.17-1.2-.15-.23-.39-.35-.7-.35-.23,0-.45,.07-.65,.21s-.35,.35-.44,.62-.13,.7-.13,1.29v2.99h-1.65v-3.41c0-.61-.03-1-.09-1.17s-.15-.31-.27-.39-.29-.13-.5-.13c-.25,0-.48,.07-.69,.21s-.35,.33-.44,.59-.13,.69-.13,1.28v3.02h-1.65v-6.22h0Z"/><path d="M137.41,70.2l-1.49-.27c.17-.6,.46-1.05,.87-1.34s1.02-.43,1.83-.43c.73,0,1.28,.09,1.64,.26s.61,.39,.76,.66,.22,.76,.22,1.47l-.02,1.92c0,.55,.03,.95,.08,1.21s.15,.54,.3,.83h-1.63c-.04-.11-.1-.27-.16-.49-.03-.1-.05-.16-.06-.19-.28,.27-.58,.48-.9,.62s-.66,.21-1.03,.21c-.64,0-1.15-.17-1.51-.52s-.55-.79-.55-1.32c0-.35,.08-.67,.25-.94s.4-.49,.71-.63,.74-.27,1.31-.38c.77-.14,1.3-.28,1.6-.4v-.16c0-.32-.08-.54-.23-.68s-.45-.2-.88-.2c-.29,0-.52,.06-.69,.17s-.3,.32-.4,.61h-.02Zm2.2,1.33c-.21,.07-.54,.15-1,.25s-.76,.19-.9,.29c-.21,.15-.32,.35-.32,.58s.09,.43,.26,.6,.39,.25,.66,.25c.3,0,.58-.1,.85-.29,.2-.15,.33-.33,.39-.54,.04-.14,.06-.41,.06-.8v-.33h0Z"/><path d="M145.71,68.3v1.31h-1.12v2.51c0,.51,.01,.8,.03,.89s.07,.15,.15,.21,.17,.08,.28,.08c.15,0,.37-.05,.66-.16l.14,1.28c-.38,.16-.82,.25-1.3,.25-.3,0-.56-.05-.8-.15s-.41-.23-.52-.39-.19-.37-.23-.64c-.04-.19-.05-.58-.05-1.16v-2.71h-.76v-1.31h.76v-1.24l1.65-.96v2.2h1.11Z"/><path d="M146.85,67.46v-1.52h1.65v1.52h-1.65Zm0,7.07v-6.22h1.65v6.22h-1.65Z"/><path d="M149.8,71.32c0-.55,.13-1.08,.4-1.59s.65-.9,1.15-1.17,1.05-.4,1.66-.4c.94,0,1.71,.31,2.31,.92s.9,1.38,.9,2.32-.3,1.72-.91,2.34-1.37,.93-2.29,.93c-.57,0-1.11-.13-1.63-.39s-.91-.64-1.18-1.13-.4-1.1-.4-1.82h0Zm1.69,.08c0,.62,.15,1.09,.44,1.42s.65,.49,1.08,.49,.79-.16,1.08-.49,.44-.8,.44-1.43-.15-1.08-.44-1.41-.65-.49-1.08-.49-.79,.16-1.08,.49-.44,.8-.44,1.42Z"/><path d="M163.17,74.52h-1.65v-3.18c0-.67-.04-1.11-.11-1.3s-.18-.35-.34-.46-.35-.16-.57-.16c-.29,0-.54,.08-.77,.23s-.38,.36-.47,.62-.13,.73-.13,1.43v2.82h-1.65v-6.22h1.53v.91c.54-.7,1.23-1.05,2.05-1.05,.36,0,.7,.07,1,.2s.53,.3,.68,.5,.26,.43,.32,.69,.09,.63,.09,1.11v3.87h.02Z"/></g><g><path d="M83.2,88.92h-1.53v-.91c-.25,.36-.55,.62-.9,.79s-.69,.26-1.05,.26c-.71,0-1.33-.29-1.84-.86s-.76-1.38-.76-2.41,.25-1.86,.74-2.41,1.12-.82,1.88-.82c.7,0,1.3,.29,1.8,.87v-3.09h1.65v8.59h.01Zm-4.39-3.26c0,.66,.09,1.14,.28,1.44,.27,.43,.64,.64,1.11,.64,.38,0,.7-.16,.97-.48s.4-.8,.4-1.44c0-.71-.13-1.23-.39-1.54s-.59-.47-.99-.47-.72,.16-.98,.47-.4,.77-.4,1.39h0Z"/><path d="M88.43,86.94l1.64,.28c-.21,.6-.54,1.06-1,1.37s-1.02,.47-1.71,.47c-1.08,0-1.88-.35-2.4-1.06-.41-.57-.62-1.28-.62-2.14,0-1.03,.27-1.84,.81-2.42s1.22-.88,2.04-.88c.93,0,1.66,.31,2.19,.92s.79,1.55,.77,2.81h-4.12c.01,.49,.14,.87,.4,1.14s.57,.41,.95,.41c.26,0,.47-.07,.65-.21s.31-.37,.4-.68h0Zm.09-1.67c-.01-.48-.13-.84-.37-1.09s-.52-.37-.86-.37c-.36,0-.66,.13-.89,.39s-.35,.62-.35,1.07h2.47Z"/><path d="M90.92,87.15l1.65-.25c.07,.32,.21,.56,.43,.73s.52,.25,.9,.25c.43,0,.75-.08,.96-.23,.14-.11,.22-.26,.22-.44,0-.12-.04-.23-.12-.31-.08-.08-.27-.15-.55-.22-1.33-.29-2.17-.56-2.53-.8-.49-.34-.74-.8-.74-1.4,0-.54,.21-.99,.64-1.36s1.09-.55,1.98-.55,1.48,.14,1.9,.42,.7,.69,.86,1.23l-1.55,.29c-.07-.24-.19-.43-.38-.56s-.45-.19-.79-.19c-.43,0-.74,.06-.93,.18-.12,.09-.19,.2-.19,.33,0,.12,.05,.22,.16,.3,.15,.11,.66,.26,1.54,.46s1.49,.44,1.84,.73c.34,.29,.52,.7,.52,1.22,0,.57-.24,1.06-.71,1.47s-1.18,.62-2.12,.62c-.85,0-1.52-.17-2.01-.52s-.82-.81-.97-1.4h-.01Z"/><path d="M101.44,88.92v-8.59h1.65v3.09c.51-.58,1.11-.87,1.8-.87,.76,0,1.38,.27,1.88,.82s.74,1.34,.74,2.36-.25,1.88-.76,2.46-1.12,.86-1.84,.86c-.36,0-.71-.09-1.05-.27s-.64-.44-.89-.79v.91h-1.53v.02Zm1.63-3.25c0,.64,.1,1.12,.3,1.43,.29,.44,.66,.66,1.14,.66,.36,0,.67-.16,.93-.47s.38-.8,.38-1.47c0-.71-.13-1.22-.39-1.54s-.59-.47-.99-.47-.72,.15-.98,.46-.39,.77-.39,1.4h0Z"/><path d="M112.93,88.92v-.93c-.23,.33-.52,.59-.89,.79s-.76,.29-1.17,.29-.79-.09-1.12-.28-.57-.44-.72-.77-.22-.79-.22-1.38v-3.94h1.65v2.86c0,.88,.03,1.41,.09,1.61s.17,.35,.33,.47,.36,.17,.61,.17c.28,0,.53-.08,.76-.23s.38-.35,.46-.57,.12-.79,.12-1.68v-2.62h1.65v6.22h-1.55Z"/><path d="M115.59,87.15l1.65-.25c.07,.32,.21,.56,.43,.73s.52,.25,.9,.25c.43,0,.75-.08,.96-.23,.14-.11,.22-.26,.22-.44,0-.12-.04-.23-.12-.31-.08-.08-.27-.15-.55-.22-1.33-.29-2.17-.56-2.53-.8-.49-.34-.74-.8-.74-1.4,0-.54,.21-.99,.64-1.36s1.09-.55,1.98-.55,1.48,.14,1.9,.42,.7,.69,.86,1.23l-1.55,.29c-.07-.24-.19-.43-.38-.56s-.45-.19-.79-.19c-.43,0-.74,.06-.93,.18-.12,.09-.19,.2-.19,.33,0,.12,.05,.22,.16,.3,.15,.11,.66,.26,1.54,.46s1.49,.44,1.84,.73c.34,.29,.52,.7,.52,1.22,0,.57-.24,1.06-.71,1.47s-1.18,.62-2.12,.62c-.85,0-1.52-.17-2.01-.52s-.82-.81-.97-1.4h-.01Z"/><path d="M122.84,81.86v-1.52h1.65v1.52h-1.65Zm0,7.07v-6.22h1.65v6.22h-1.65Z"/><path d="M131.83,88.92h-1.65v-3.18c0-.67-.04-1.11-.11-1.3s-.18-.35-.34-.46-.35-.16-.57-.16c-.29,0-.54,.08-.77,.23s-.38,.36-.47,.62-.13,.73-.13,1.43v2.82h-1.65v-6.22h1.53v.91c.54-.7,1.23-1.05,2.05-1.05,.36,0,.7,.07,1,.2s.53,.3,.68,.5,.26,.43,.32,.69,.09,.63,.09,1.11v3.87h.02Z"/><path d="M137.11,86.94l1.64,.28c-.21,.6-.54,1.06-1,1.37s-1.02,.47-1.71,.47c-1.08,0-1.88-.35-2.4-1.06-.41-.57-.62-1.28-.62-2.14,0-1.03,.27-1.84,.81-2.42s1.22-.88,2.04-.88c.93,0,1.66,.31,2.19,.92s.79,1.55,.77,2.81h-4.12c.01,.49,.14,.87,.4,1.14s.57,.41,.95,.41c.26,0,.47-.07,.65-.21s.31-.37,.4-.68h0Zm.09-1.67c-.01-.48-.13-.84-.37-1.09s-.52-.37-.86-.37c-.36,0-.66,.13-.89,.39s-.35,.62-.35,1.07h2.47Z"/><path d="M139.6,87.15l1.65-.25c.07,.32,.21,.56,.43,.73s.52,.25,.9,.25c.43,0,.75-.08,.96-.23,.14-.11,.22-.26,.22-.44,0-.12-.04-.23-.12-.31-.08-.08-.27-.15-.55-.22-1.33-.29-2.17-.56-2.53-.8-.49-.34-.74-.8-.74-1.4,0-.54,.21-.99,.64-1.36s1.09-.55,1.98-.55,1.48,.14,1.9,.42,.7,.69,.86,1.23l-1.55,.29c-.07-.24-.19-.43-.38-.56s-.45-.19-.79-.19c-.43,0-.74,.06-.93,.18-.12,.09-.19,.2-.19,.33,0,.12,.05,.22,.16,.3,.15,.11,.66,.26,1.54,.46s1.49,.44,1.84,.73c.34,.29,.52,.7,.52,1.22,0,.57-.24,1.06-.71,1.47s-1.18,.62-2.12,.62c-.85,0-1.52-.17-2.01-.52s-.82-.81-.97-1.4h-.01Z"/><path d="M146.27,87.15l1.65-.25c.07,.32,.21,.56,.43,.73s.52,.25,.9,.25c.43,0,.75-.08,.96-.23,.14-.11,.22-.26,.22-.44,0-.12-.04-.23-.12-.31-.08-.08-.27-.15-.55-.22-1.33-.29-2.17-.56-2.53-.8-.49-.34-.74-.8-.74-1.4,0-.54,.21-.99,.64-1.36s1.09-.55,1.98-.55,1.48,.14,1.9,.42,.7,.69,.86,1.23l-1.55,.29c-.07-.24-.19-.43-.38-.56s-.45-.19-.79-.19c-.43,0-.74,.06-.93,.18-.12,.09-.19,.2-.19,.33,0,.12,.05,.22,.16,.3,.15,.11,.66,.26,1.54,.46s1.49,.44,1.84,.73c.34,.29,.52,.7,.52,1.22,0,.57-.24,1.06-.71,1.47s-1.18,.62-2.12,.62c-.85,0-1.52-.17-2.01-.52s-.82-.81-.97-1.4h-.01Z"/></g><g><path d="M77.37,97.1h1.52v.85c.54-.66,1.19-.99,1.94-.99,.4,0,.74,.08,1.04,.25s.53,.41,.72,.74c.27-.33,.57-.58,.88-.74s.65-.25,1.01-.25c.46,0,.84,.09,1.16,.28s.55,.46,.71,.82c.11,.27,.17,.7,.17,1.29v3.98h-1.65v-3.56c0-.62-.06-1.02-.17-1.2-.15-.23-.39-.35-.7-.35-.23,0-.45,.07-.65,.21s-.35,.35-.44,.62-.13,.7-.13,1.29v2.99h-1.65v-3.41c0-.61-.03-1-.09-1.17s-.15-.31-.27-.39-.29-.13-.5-.13c-.25,0-.48,.07-.69,.21s-.35,.33-.44,.59-.13,.69-.13,1.28v3.02h-1.65v-6.22h0Z"/><path d="M87.78,100.13c0-.55,.13-1.08,.4-1.59s.65-.9,1.15-1.17,1.05-.4,1.66-.4c.94,0,1.71,.31,2.31,.92s.9,1.38,.9,2.32-.3,1.72-.91,2.34-1.37,.93-2.29,.93c-.57,0-1.11-.13-1.63-.39s-.91-.64-1.18-1.13-.4-1.1-.4-1.82h0Zm1.69,.08c0,.62,.15,1.09,.44,1.42s.65,.49,1.08,.49,.79-.16,1.08-.49,.44-.8,.44-1.43-.15-1.08-.44-1.41-.65-.49-1.08-.49-.79,.16-1.08,.49-.44,.8-.44,1.42Z"/><path d="M101.2,103.32h-1.53v-.91c-.25,.36-.55,.62-.9,.79s-.69,.26-1.05,.26c-.71,0-1.33-.29-1.84-.86s-.76-1.38-.76-2.41,.25-1.86,.74-2.41,1.12-.82,1.88-.82c.7,0,1.3,.29,1.8,.87v-3.09h1.65v8.59h.01Zm-4.39-3.26c0,.66,.09,1.14,.28,1.44,.27,.43,.64,.64,1.11,.64,.38,0,.7-.16,.97-.48s.4-.8,.4-1.44c0-.71-.13-1.23-.39-1.54s-.59-.47-.99-.47-.72,.16-.98,.47-.4,.77-.4,1.39h0Z"/><path d="M106.43,101.34l1.64,.28c-.21,.6-.54,1.06-1,1.37s-1.02,.47-1.71,.47c-1.08,0-1.88-.35-2.4-1.06-.41-.57-.62-1.28-.62-2.14,0-1.03,.27-1.84,.81-2.42s1.22-.88,2.04-.88c.93,0,1.66,.31,2.19,.92s.79,1.55,.77,2.81h-4.12c.01,.49,.14,.87,.4,1.14s.57,.41,.95,.41c.26,0,.47-.07,.65-.21s.31-.37,.4-.68h0Zm.09-1.67c-.01-.48-.13-.84-.37-1.09s-.52-.37-.86-.37c-.36,0-.66,.13-.89,.39s-.35,.62-.35,1.07h2.47Z"/><path d="M109.5,103.32v-8.59h1.65v8.59s-1.65,0-1.65,0Z"/><path d="M112.25,101.55l1.65-.25c.07,.32,.21,.56,.43,.73s.52,.25,.9,.25c.43,0,.75-.08,.96-.23,.14-.11,.22-.26,.22-.44,0-.12-.04-.23-.12-.31-.08-.08-.27-.15-.55-.22-1.33-.29-2.17-.56-2.53-.8-.49-.34-.74-.8-.74-1.4,0-.54,.21-.99,.64-1.36s1.09-.55,1.98-.55,1.48,.14,1.9,.42,.7,.69,.86,1.23l-1.55,.29c-.07-.24-.19-.43-.38-.56s-.45-.19-.79-.19c-.43,0-.74,.06-.93,.18-.12,.09-.19,.2-.19,.33,0,.12,.05,.22,.16,.3,.15,.11,.66,.26,1.54,.46s1.49,.44,1.84,.73c.34,.29,.52,.7,.52,1.22,0,.57-.24,1.06-.71,1.47s-1.18,.62-2.12,.62c-.85,0-1.52-.17-2.01-.52s-.82-.81-.97-1.4h-.01Z"/></g><g><path d="M203.37,71.37l1.68,.53c-.26,.94-.69,1.63-1.29,2.09s-1.36,.68-2.28,.68c-1.14,0-2.08-.39-2.81-1.17s-1.1-1.84-1.1-3.2c0-1.43,.37-2.54,1.11-3.33s1.71-1.19,2.91-1.19c1.05,0,1.9,.31,2.56,.93,.39,.37,.68,.89,.88,1.58l-1.72,.41c-.1-.45-.31-.8-.64-1.05s-.71-.39-1.17-.39c-.64,0-1.15,.23-1.55,.69s-.59,1.2-.59,2.22c0,1.09,.2,1.86,.59,2.32s.9,.69,1.52,.69c.46,0,.86-.15,1.19-.44s.57-.75,.71-1.38h0Z"/><path d="M206.14,71.32c0-.55,.13-1.08,.4-1.59s.65-.9,1.15-1.17,1.05-.4,1.66-.4c.94,0,1.71,.31,2.31,.92s.9,1.38,.9,2.32-.3,1.72-.91,2.34-1.37,.93-2.29,.93c-.57,0-1.11-.13-1.63-.39s-.91-.64-1.18-1.13-.4-1.1-.4-1.82h0Zm1.69,.08c0,.62,.15,1.09,.44,1.42s.65,.49,1.08,.49,.79-.16,1.08-.49,.44-.8,.44-1.43-.15-1.08-.44-1.41-.65-.49-1.08-.49-.79,.16-1.08,.49-.44,.8-.44,1.42Z"/><path d="M213.73,68.3h1.52v.85c.54-.66,1.19-.99,1.94-.99,.4,0,.74,.08,1.04,.25s.53,.41,.72,.74c.27-.33,.57-.58,.88-.74s.65-.25,1.01-.25c.46,0,.84,.09,1.16,.28s.55,.46,.71,.82c.11,.27,.17,.7,.17,1.29v3.98h-1.65v-3.56c0-.62-.06-1.02-.17-1.2-.15-.23-.39-.35-.7-.35-.23,0-.45,.07-.65,.21s-.35,.35-.44,.62-.13,.7-.13,1.29v2.99h-1.65v-3.41c0-.61-.03-1-.09-1.17s-.15-.31-.27-.39-.29-.13-.5-.13c-.25,0-.48,.07-.69,.21s-.35,.33-.44,.59-.13,.69-.13,1.28v3.02h-1.65v-6.22h0Z"/><path d="M224.48,68.3h1.54v.91c.2-.31,.47-.57,.81-.76s.72-.29,1.13-.29c.72,0,1.34,.28,1.84,.85s.76,1.36,.76,2.37-.25,1.85-.76,2.42-1.12,.86-1.85,.86c-.34,0-.66-.07-.93-.21s-.57-.37-.88-.7v3.13h-1.65v-8.59h-.01Zm1.63,3.02c0,.7,.14,1.22,.42,1.55s.62,.5,1.01,.5,.7-.15,.96-.46,.38-.81,.38-1.51c0-.65-.13-1.14-.39-1.45s-.59-.47-.97-.47-.74,.16-1,.47-.4,.77-.4,1.38h-.01Z"/><path d="M235.46,72.54l1.64,.28c-.21,.6-.54,1.06-1,1.37s-1.02,.47-1.71,.47c-1.08,0-1.88-.35-2.4-1.06-.41-.57-.62-1.28-.62-2.14,0-1.03,.27-1.84,.81-2.42s1.22-.88,2.04-.88c.93,0,1.66,.31,2.19,.92s.79,1.55,.77,2.81h-4.12c.01,.49,.14,.87,.4,1.14s.57,.41,.95,.41c.26,0,.47-.07,.65-.21s.31-.37,.4-.68h0Zm.09-1.67c-.01-.48-.13-.84-.37-1.09s-.52-.37-.86-.37c-.36,0-.66,.13-.89,.39s-.35,.62-.35,1.07h2.47Zm-2.1-3.34l.81-1.75h1.85l-1.61,1.75h-1.05Z"/><path d="M241.38,68.3v1.31h-1.12v2.51c0,.51,.01,.8,.03,.89s.07,.15,.15,.21,.17,.08,.28,.08c.15,0,.37-.05,.66-.16l.14,1.28c-.38,.16-.82,.25-1.3,.25-.3,0-.56-.05-.8-.15s-.41-.23-.52-.39-.19-.37-.23-.64c-.04-.19-.05-.58-.05-1.16v-2.71h-.76v-1.31h.76v-1.24l1.65-.96v2.2h1.11Z"/><path d="M242.52,67.46v-1.52h1.65v1.52h-1.65Zm0,7.07v-6.22h1.65v6.22h-1.65Z"/><path d="M248.71,68.3v1.31h-1.12v2.51c0,.51,.01,.8,.03,.89s.07,.15,.15,.21,.17,.08,.28,.08c.15,0,.37-.05,.66-.16l.14,1.28c-.38,.16-.82,.25-1.3,.25-.3,0-.56-.05-.8-.15s-.41-.23-.52-.39-.19-.37-.23-.64c-.04-.19-.05-.58-.05-1.16v-2.71h-.76v-1.31h.76v-1.24l1.65-.96v2.2h1.11Z"/><path d="M249.85,67.46v-1.52h1.65v1.52h-1.65Zm0,7.07v-6.22h1.65v6.22h-1.65Z"/><path d="M254.9,74.52l-2.51-6.22h1.73l1.17,3.18,.34,1.06c.09-.27,.15-.45,.17-.53,.05-.18,.11-.35,.18-.53l1.18-3.18h1.69l-2.47,6.22h-1.48Z"/><path d="M259.86,67.46v-1.52h1.65v1.52h-1.65Zm0,7.07v-6.22h1.65v6.22h-1.65Z"/><path d="M266.05,68.3v1.31h-1.12v2.51c0,.51,.01,.8,.03,.89s.07,.15,.15,.21,.17,.08,.28,.08c.15,0,.37-.05,.66-.16l.14,1.28c-.38,.16-.82,.25-1.3,.25-.3,0-.56-.05-.8-.15s-.41-.23-.52-.39-.19-.37-.23-.64c-.04-.19-.05-.58-.05-1.16v-2.71h-.76v-1.31h.76v-1.24l1.65-.96v2.2h1.11Z"/><path d="M270.79,72.54l1.64,.28c-.21,.6-.54,1.06-1,1.37s-1.02,.47-1.71,.47c-1.08,0-1.88-.35-2.4-1.06-.41-.57-.62-1.28-.62-2.14,0-1.03,.27-1.84,.81-2.42s1.22-.88,2.04-.88c.93,0,1.66,.31,2.19,.92s.79,1.55,.77,2.81h-4.12c.01,.49,.14,.87,.4,1.14s.57,.41,.95,.41c.26,0,.47-.07,.65-.21s.31-.37,.4-.68h0Zm.09-1.67c-.01-.48-.13-.84-.37-1.09s-.52-.37-.86-.37c-.36,0-.66,.13-.89,.39s-.35,.62-.35,1.07h2.47Zm-2.1-3.34l.81-1.75h1.85l-1.61,1.75h-1.05Z"/></g><g><path d="M200.71,82.7v1.31h-1.12v2.51c0,.51,.01,.8,.03,.89s.07,.15,.15,.21,.17,.08,.28,.08c.15,0,.37-.05,.66-.16l.14,1.28c-.38,.16-.82,.25-1.3,.25-.3,0-.56-.05-.8-.15s-.41-.23-.52-.39-.19-.37-.23-.64c-.04-.19-.05-.58-.05-1.16v-2.71h-.76v-1.31h.76v-1.24l1.65-.96v2.2h1.11Z"/><path d="M205.46,86.94l1.64,.28c-.21,.6-.54,1.06-1,1.37s-1.02,.47-1.71,.47c-1.08,0-1.88-.35-2.4-1.06-.41-.57-.62-1.28-.62-2.14,0-1.03,.27-1.84,.81-2.42s1.22-.88,2.04-.88c.93,0,1.66,.31,2.19,.92s.79,1.55,.77,2.81h-4.12c.01,.49,.14,.87,.4,1.14s.57,.41,.95,.41c.26,0,.47-.07,.65-.21s.31-.37,.4-.68h0Zm.09-1.67c-.01-.48-.13-.84-.37-1.09s-.52-.37-.86-.37c-.36,0-.66,.13-.89,.39s-.35,.62-.35,1.07h2.47Z"/><path d="M213.95,84.54l-1.62,.29c-.05-.32-.18-.57-.37-.73s-.44-.25-.75-.25c-.41,0-.74,.14-.98,.42s-.37,.76-.37,1.42c0,.74,.12,1.26,.37,1.56s.58,.46,1,.46c.31,0,.57-.09,.77-.27s.34-.48,.42-.92l1.62,.28c-.17,.74-.49,1.3-.97,1.68s-1.12,.57-1.92,.57c-.91,0-1.64-.29-2.18-.86s-.81-1.37-.81-2.38,.27-1.83,.81-2.4,1.28-.86,2.2-.86c.76,0,1.36,.16,1.81,.49s.77,.82,.96,1.49h.01Z"/><path d="M216.84,80.33v3.16c.53-.62,1.17-.93,1.9-.93,.38,0,.72,.07,1.03,.21s.53,.32,.69,.54,.26,.46,.32,.73,.08,.68,.08,1.24v3.65h-1.65v-3.29c0-.65-.03-1.07-.09-1.24s-.17-.32-.33-.42-.36-.16-.59-.16c-.27,0-.52,.07-.73,.2s-.37,.33-.47,.6-.15,.66-.15,1.19v3.12h-1.65v-8.59h1.64Z"/><path d="M228.19,88.92h-1.65v-3.18c0-.67-.04-1.11-.11-1.3s-.18-.35-.34-.46-.35-.16-.57-.16c-.29,0-.54,.08-.77,.23s-.38,.36-.47,.62-.13,.73-.13,1.43v2.82h-1.65v-6.22h1.53v.91c.54-.7,1.23-1.05,2.05-1.05,.36,0,.7,.07,1,.2s.53,.3,.68,.5,.26,.43,.32,.69,.09,.63,.09,1.11v3.87h.02Z"/><path d="M229.48,85.73c0-.55,.13-1.08,.4-1.59s.65-.9,1.15-1.17,1.05-.4,1.66-.4c.94,0,1.71,.31,2.31,.92s.9,1.38,.9,2.32-.3,1.72-.91,2.34-1.37,.93-2.29,.93c-.57,0-1.11-.13-1.63-.39s-.91-.64-1.18-1.13-.4-1.1-.4-1.82h0Zm1.69,.08c0,.62,.15,1.09,.44,1.42s.65,.49,1.08,.49,.79-.16,1.08-.49,.44-.8,.44-1.43-.15-1.08-.44-1.41-.65-.49-1.08-.49-.79,.16-1.08,.49-.44,.8-.44,1.42Z"/><path d="M237.19,88.92v-8.59h1.65v8.59h-1.65Z"/><path d="M240.14,85.73c0-.55,.13-1.08,.4-1.59s.65-.9,1.15-1.17,1.05-.4,1.66-.4c.94,0,1.71,.31,2.31,.92s.9,1.38,.9,2.32-.3,1.72-.91,2.34-1.37,.93-2.29,.93c-.57,0-1.11-.13-1.63-.39s-.91-.64-1.18-1.13-.4-1.1-.4-1.82h-.01Zm1.69,.08c0,.62,.15,1.09,.44,1.42s.65,.49,1.08,.49,.79-.16,1.08-.49,.44-.8,.44-1.43-.15-1.08-.44-1.41-.65-.49-1.08-.49-.79,.16-1.08,.49-.44,.8-.44,1.42Z"/><path d="M247.7,89.33l1.88,.23c.03,.22,.1,.37,.22,.45,.16,.12,.4,.18,.74,.18,.43,0,.75-.06,.97-.19,.14-.09,.25-.22,.33-.42,.05-.14,.08-.39,.08-.76v-.91c-.49,.67-1.11,1.01-1.86,1.01-.84,0-1.5-.35-1.99-1.06-.38-.56-.57-1.25-.57-2.09,0-1.04,.25-1.84,.75-2.39s1.13-.83,1.87-.83,1.4,.34,1.9,1.01v-.87h1.54v5.58c0,.73-.06,1.28-.18,1.65s-.29,.65-.51,.86-.51,.37-.88,.49-.83,.18-1.39,.18c-1.05,0-1.8-.18-2.24-.54s-.66-.82-.66-1.37v-.2h0Zm1.47-3.66c0,.66,.13,1.14,.38,1.45s.57,.46,.95,.46c.4,0,.74-.16,1.02-.47s.42-.78,.42-1.4-.13-1.12-.4-1.44-.6-.47-1.01-.47-.72,.15-.98,.46-.38,.77-.38,1.4h0Z"/><path d="M255.19,81.86v-1.52h1.65v1.52h-1.65Zm0,7.07v-6.22h1.65v6.22h-1.65Z"/><path d="M262.59,91.29v-3.13c-.21,.28-.48,.5-.8,.66s-.67,.24-1.04,.24c-.71,0-1.29-.27-1.75-.8-.54-.62-.81-1.46-.81-2.53,0-1,.25-1.78,.76-2.34s1.13-.84,1.88-.84c.41,0,.77,.09,1.08,.26s.57,.44,.81,.8v-.92h1.52v8.59h-1.65Zm.05-5.54c0-.64-.13-1.11-.39-1.42s-.58-.47-.98-.47-.73,.16-1,.47-.4,.82-.4,1.51,.13,1.18,.39,1.48,.58,.45,.96,.45,.71-.17,1-.51,.43-.85,.43-1.52h-.01Z"/><path d="M269.95,88.92v-.93c-.23,.33-.52,.59-.89,.79s-.76,.29-1.17,.29-.79-.09-1.12-.28-.57-.44-.72-.77-.22-.79-.22-1.38v-3.94h1.65v2.86c0,.88,.03,1.41,.09,1.61s.17,.35,.33,.47,.36,.17,.61,.17c.28,0,.53-.08,.76-.23s.38-.35,.46-.57,.12-.79,.12-1.68v-2.62h1.65v6.22h-1.55Z"/><path d="M276.78,86.94l1.64,.28c-.21,.6-.54,1.06-1,1.37s-1.02,.47-1.71,.47c-1.08,0-1.88-.35-2.4-1.06-.41-.57-.62-1.28-.62-2.14,0-1.03,.27-1.84,.81-2.42s1.22-.88,2.04-.88c.93,0,1.66,.31,2.19,.92s.79,1.55,.77,2.81h-4.12c.01,.49,.14,.87,.4,1.14s.57,.41,.95,.41c.26,0,.47-.07,.65-.21s.31-.37,.4-.68h0Zm.09-1.67c-.01-.48-.13-.84-.37-1.09s-.52-.37-.86-.37c-.36,0-.66,.13-.89,.39s-.35,.62-.35,1.07h2.47Z"/></g><g><path d="M259.09,164.81v-8.59h3.65c.92,0,1.58,.08,2,.23s.75,.43,1,.82,.38,.85,.38,1.35c0,.64-.19,1.18-.57,1.6s-.95,.68-1.7,.79c.38,.22,.68,.46,.93,.72s.57,.73,.99,1.39l1.05,1.68h-2.07l-1.25-1.87c-.45-.67-.75-1.09-.91-1.26s-.34-.29-.52-.36-.47-.1-.87-.1h-.35v3.59h-1.76Zm1.73-4.95h1.28c.83,0,1.35-.04,1.56-.11s.37-.19,.49-.36,.18-.39,.18-.64c0-.29-.08-.52-.23-.7s-.37-.29-.65-.34c-.14-.02-.56-.03-1.27-.03h-1.35v2.18h-.01Z"/><path d="M271.34,162.83l1.64,.28c-.21,.6-.54,1.06-1,1.37s-1.02,.47-1.71,.47c-1.08,0-1.88-.35-2.4-1.06-.41-.57-.62-1.28-.62-2.14,0-1.03,.27-1.84,.81-2.42s1.22-.88,2.04-.88c.93,0,1.66,.31,2.19,.92s.79,1.55,.77,2.81h-4.12c.01,.49,.14,.87,.4,1.14s.57,.41,.95,.41c.26,0,.47-.07,.65-.21s.31-.37,.4-.68h0Zm.09-1.67c-.01-.48-.13-.84-.37-1.09s-.52-.37-.86-.37c-.36,0-.66,.13-.89,.39s-.35,.62-.35,1.07h2.47Zm-2.1-3.34l.81-1.75h1.85l-1.61,1.75h-1.05Z"/><path d="M273.83,163.03l1.65-.25c.07,.32,.21,.56,.43,.73s.52,.25,.9,.25c.43,0,.75-.08,.96-.23,.14-.11,.22-.26,.22-.44,0-.12-.04-.23-.12-.31s-.27-.15-.55-.22c-1.33-.29-2.17-.56-2.53-.8-.49-.34-.74-.8-.74-1.4,0-.54,.21-.99,.64-1.36s1.09-.55,1.98-.55,1.48,.14,1.9,.42,.7,.69,.86,1.23l-1.55,.29c-.07-.24-.19-.43-.38-.56s-.45-.19-.79-.19c-.43,0-.74,.06-.93,.18-.12,.09-.19,.2-.19,.33,0,.12,.05,.22,.16,.3,.15,.11,.66,.26,1.54,.46s1.49,.44,1.84,.73c.34,.29,.52,.7,.52,1.22,0,.57-.24,1.06-.71,1.47s-1.18,.62-2.12,.62c-.85,0-1.52-.17-2.01-.52s-.82-.81-.97-1.4h-.01Z"/><path d="M281.09,157.74v-1.52h1.65v1.52h-1.65Zm0,7.07v-6.22h1.65v6.22h-1.65Z"/><path d="M284.42,164.81v-8.59h1.65v8.59h-1.65Z"/><path d="M287.75,157.74v-1.52h1.65v1.52h-1.65Zm0,7.07v-6.22h1.65v6.22h-1.65Z"/><path d="M294.69,162.83l1.64,.28c-.21,.6-.54,1.06-1,1.37s-1.02,.47-1.71,.47c-1.08,0-1.88-.35-2.4-1.06-.41-.57-.62-1.28-.62-2.14,0-1.03,.27-1.84,.81-2.42s1.22-.88,2.04-.88c.93,0,1.66,.31,2.19,.92s.79,1.55,.77,2.81h-4.12c.01,.49,.14,.87,.4,1.14s.57,.41,.95,.41c.26,0,.47-.07,.65-.21s.31-.37,.4-.68h0Zm.09-1.67c-.01-.48-.13-.84-.37-1.09s-.52-.37-.86-.37c-.36,0-.66,.13-.89,.39s-.35,.62-.35,1.07h2.47Z"/><path d="M303.42,164.81h-1.65v-3.18c0-.67-.04-1.11-.11-1.3s-.18-.35-.34-.46-.35-.16-.57-.16c-.29,0-.54,.08-.77,.23s-.38,.36-.47,.62-.13,.73-.13,1.43v2.82h-1.65v-6.22h1.53v.91c.54-.7,1.23-1.05,2.05-1.05,.36,0,.7,.07,1,.2s.53,.3,.68,.5,.26,.43,.32,.69,.09,.63,.09,1.11v3.87h.02Z"/><path d="M310.52,160.42l-1.62,.29c-.05-.32-.18-.57-.37-.73s-.44-.25-.75-.25c-.41,0-.74,.14-.98,.42s-.37,.76-.37,1.42c0,.74,.12,1.26,.37,1.56s.58,.46,1,.46c.31,0,.57-.09,.77-.27s.34-.48,.42-.92l1.62,.28c-.17,.74-.49,1.3-.97,1.68s-1.12,.57-1.92,.57c-.91,0-1.64-.29-2.18-.86s-.81-1.37-.81-2.38,.27-1.83,.81-2.4,1.28-.86,2.2-.86c.76,0,1.36,.16,1.81,.49s.77,.82,.96,1.49h0Z"/><path d="M315.37,162.83l1.64,.28c-.21,.6-.54,1.06-1,1.37s-1.02,.47-1.71,.47c-1.08,0-1.88-.35-2.4-1.06-.41-.57-.62-1.28-.62-2.14,0-1.03,.27-1.84,.81-2.42s1.22-.88,2.04-.88c.93,0,1.66,.31,2.19,.92s.79,1.55,.77,2.81h-4.12c.01,.49,.14,.87,.4,1.14s.57,.41,.95,.41c.26,0,.47-.07,.65-.21s.31-.37,.4-.68h0Zm.09-1.67c-.01-.48-.13-.84-.37-1.09s-.52-.37-.86-.37c-.36,0-.66,.13-.89,.39s-.35,.62-.35,1.07h2.47Z"/><path d="M318.4,163.16h1.65v1.18c0,.48-.04,.85-.12,1.13s-.24,.52-.47,.74-.52,.39-.87,.52l-.32-.68c.33-.11,.57-.26,.71-.45s.21-.45,.22-.79h-.8v-1.65h0Z"/></g><g><path d="M260.65,179.21h-1.65v-6.22h1.53v.88c.26-.42,.5-.69,.71-.83s.45-.2,.71-.2c.38,0,.74,.1,1.08,.31l-.51,1.44c-.28-.18-.54-.27-.77-.27s-.43,.06-.59,.19-.29,.36-.38,.69-.14,1.03-.14,2.09v1.92h.01Z"/><path d="M263.74,172.14v-1.52h1.65v1.52h-1.65Zm0,7.07v-6.22h1.65v6.22h-1.65Z"/><path d="M266.5,177.43l1.65-.25c.07,.32,.21,.56,.43,.73s.52,.25,.9,.25c.43,0,.75-.08,.96-.23,.14-.11,.22-.26,.22-.44,0-.12-.04-.23-.12-.31s-.27-.15-.55-.22c-1.33-.29-2.17-.56-2.53-.8-.49-.34-.74-.8-.74-1.4,0-.54,.21-.99,.64-1.36s1.09-.55,1.98-.55,1.48,.14,1.9,.42,.7,.69,.86,1.23l-1.55,.29c-.07-.24-.19-.43-.38-.56s-.45-.19-.79-.19c-.43,0-.74,.06-.93,.18-.12,.09-.19,.2-.19,.33,0,.12,.05,.22,.16,.3,.15,.11,.66,.26,1.54,.46s1.49,.44,1.84,.73c.34,.29,.52,.7,.52,1.22,0,.57-.24,1.06-.71,1.47s-1.18,.62-2.12,.62c-.85,0-1.52-.17-2.01-.52s-.82-.81-.97-1.4h-.01Z"/><path d="M277.82,181.57v-3.13c-.21,.28-.48,.5-.8,.66s-.67,.24-1.04,.24c-.71,0-1.29-.27-1.75-.8-.54-.62-.81-1.46-.81-2.53,0-1,.25-1.78,.76-2.34s1.13-.84,1.88-.84c.41,0,.77,.09,1.08,.26s.57,.44,.81,.8v-.92h1.52v8.59h-1.65Zm.05-5.54c0-.64-.13-1.11-.39-1.42s-.58-.47-.98-.47-.73,.16-1,.47-.4,.82-.4,1.51,.13,1.18,.39,1.48,.58,.45,.96,.45,.71-.17,1-.51,.43-.85,.43-1.52h-.01Z"/><path d="M285.18,179.21v-.93c-.23,.33-.52,.59-.89,.79s-.76,.29-1.17,.29-.79-.09-1.12-.28-.57-.44-.72-.77-.22-.79-.22-1.38v-3.94h1.65v2.86c0,.88,.03,1.41,.09,1.61s.17,.35,.33,.47,.36,.17,.61,.17c.28,0,.53-.08,.76-.23s.38-.35,.46-.57,.12-.79,.12-1.68v-2.62h1.65v6.22h-1.55Z"/><path d="M292.01,177.22l1.64,.28c-.21,.6-.54,1.06-1,1.37s-1.02,.47-1.71,.47c-1.08,0-1.88-.35-2.4-1.06-.41-.57-.62-1.28-.62-2.14,0-1.03,.27-1.84,.81-2.42s1.22-.88,2.04-.88c.93,0,1.66,.31,2.19,.92s.79,1.55,.77,2.81h-4.12c.01,.49,.14,.87,.4,1.14s.57,.41,.95,.41c.26,0,.47-.07,.65-.21s.31-.37,.4-.68h0Zm.09-1.67c-.01-.48-.13-.84-.37-1.09s-.52-.37-.86-.37c-.36,0-.66,.13-.89,.39s-.35,.62-.35,1.07h2.47Z"/><path d="M294.5,177.43l1.65-.25c.07,.32,.21,.56,.43,.73s.52,.25,.9,.25c.43,0,.75-.08,.96-.23,.14-.11,.22-.26,.22-.44,0-.12-.04-.23-.12-.31s-.27-.15-.55-.22c-1.33-.29-2.17-.56-2.53-.8-.49-.34-.74-.8-.74-1.4,0-.54,.21-.99,.64-1.36s1.09-.55,1.98-.55,1.48,.14,1.9,.42,.7,.69,.86,1.23l-1.55,.29c-.07-.24-.19-.43-.38-.56s-.45-.19-.79-.19c-.43,0-.74,.06-.93,.18-.12,.09-.19,.2-.19,.33,0,.12,.05,.22,.16,.3,.15,.11,.66,.26,1.54,.46s1.49,.44,1.84,.73c.34,.29,.52,.7,.52,1.22,0,.57-.24,1.06-.71,1.47s-1.18,.62-2.12,.62c-.85,0-1.52-.17-2.01-.52s-.82-.81-.97-1.4h-.01Z"/><path d="M308.7,177.22l1.64,.28c-.21,.6-.54,1.06-1,1.37s-1.02,.47-1.71,.47c-1.08,0-1.88-.35-2.4-1.06-.41-.57-.62-1.28-.62-2.14,0-1.03,.27-1.84,.81-2.42s1.22-.88,2.04-.88c.93,0,1.66,.31,2.19,.92s.79,1.55,.77,2.81h-4.12c.01,.49,.14,.87,.4,1.14s.57,.41,.95,.41c.26,0,.47-.07,.65-.21s.31-.37,.4-.68h0Zm.09-1.67c-.01-.48-.13-.84-.37-1.09s-.52-.37-.86-.37c-.36,0-.66,.13-.89,.39s-.35,.62-.35,1.07h2.47Z"/><path d="M314.62,172.98v1.31h-1.12v2.51c0,.51,.01,.8,.03,.89s.07,.15,.15,.21,.17,.08,.28,.08c.15,0,.37-.05,.66-.16l.14,1.28c-.38,.16-.82,.25-1.3,.25-.3,0-.56-.05-.8-.15s-.41-.23-.52-.39-.19-.37-.23-.64c-.04-.19-.05-.58-.05-1.16v-2.71h-.76v-1.31h.76v-1.24l1.65-.96v2.2h1.11Z"/></g><g><path d="M260.65,193.6h-1.65v-6.22h1.53v.88c.26-.42,.5-.69,.71-.83s.45-.2,.71-.2c.38,0,.74,.1,1.08,.31l-.51,1.44c-.28-.18-.54-.27-.77-.27s-.43,.06-.59,.19-.29,.36-.38,.69-.14,1.03-.14,2.09v1.92h.01Z"/><path d="M267.35,191.62l1.64,.28c-.21,.6-.54,1.06-1,1.37s-1.02,.47-1.71,.47c-1.08,0-1.88-.35-2.4-1.06-.41-.57-.62-1.28-.62-2.14,0-1.03,.27-1.84,.81-2.42s1.22-.88,2.04-.88c.93,0,1.66,.31,2.19,.92s.79,1.55,.77,2.81h-4.12c.01,.49,.14,.87,.4,1.14s.57,.41,.95,.41c.26,0,.47-.07,.65-.21s.31-.37,.4-.68h0Zm.09-1.67c-.01-.48-.13-.84-.37-1.09s-.52-.37-.86-.37c-.36,0-.66,.13-.89,.39s-.35,.62-.35,1.07h2.47Z"/><path d="M270.37,187.38h1.54v.91c.2-.31,.47-.57,.81-.76s.72-.29,1.13-.29c.72,0,1.34,.28,1.84,.85s.76,1.36,.76,2.37-.25,1.85-.76,2.42-1.12,.86-1.85,.86c-.34,0-.66-.07-.93-.21s-.57-.37-.88-.7v3.13h-1.65v-8.59h-.01Zm1.63,3.02c0,.7,.14,1.22,.42,1.55s.62,.5,1.01,.5,.7-.15,.96-.46,.38-.81,.38-1.51c0-.65-.13-1.14-.39-1.45s-.59-.47-.97-.47-.74,.16-1,.47-.4,.77-.4,1.38h-.01Z"/><path d="M277.37,190.41c0-.55,.13-1.08,.4-1.59s.65-.9,1.15-1.17,1.05-.4,1.66-.4c.94,0,1.71,.31,2.31,.92s.9,1.38,.9,2.32-.3,1.72-.91,2.34-1.37,.93-2.29,.93c-.57,0-1.11-.13-1.63-.39s-.91-.64-1.18-1.13-.4-1.1-.4-1.82h-.01Zm1.69,.08c0,.62,.15,1.09,.44,1.42s.65,.49,1.08,.49,.79-.16,1.08-.49,.44-.8,.44-1.43-.15-1.08-.44-1.41-.65-.49-1.08-.49-.79,.16-1.08,.49-.44,.8-.44,1.42Z"/><path d="M286.65,193.6h-1.65v-6.22h1.53v.88c.26-.42,.5-.69,.71-.83s.45-.2,.71-.2c.38,0,.74,.1,1.08,.31l-.51,1.44c-.28-.18-.54-.27-.77-.27s-.43,.06-.59,.19-.29,.36-.38,.69-.14,1.03-.14,2.09v1.92h.01Z"/><path d="M292.6,187.38v1.31h-1.12v2.51c0,.51,.01,.8,.03,.89s.07,.15,.15,.21,.17,.08,.28,.08c.15,0,.37-.05,.66-.16l.14,1.28c-.38,.16-.82,.25-1.3,.25-.3,0-.56-.05-.8-.15s-.41-.23-.52-.39-.19-.37-.23-.64c-.04-.19-.05-.58-.05-1.16v-2.71h-.76v-1.31h.76v-1.24l1.65-.96v2.2h1.11Z"/><path d="M293.74,186.54v-1.52h1.65v1.52h-1.65Zm0,7.07v-6.22h1.65v6.22h-1.65Z"/><path d="M302.74,193.6h-1.65v-3.18c0-.67-.04-1.11-.11-1.3s-.18-.35-.34-.46-.35-.16-.57-.16c-.29,0-.54,.08-.77,.23s-.38,.36-.47,.62-.13,.73-.13,1.43v2.82h-1.65v-6.22h1.53v.91c.54-.7,1.23-1.05,2.05-1.05,.36,0,.7,.07,1,.2s.53,.3,.68,.5,.26,.43,.32,.69,.09,.63,.09,1.11v3.87h.02Z"/><path d="M304.25,194.01l1.88,.23c.03,.22,.1,.37,.22,.45,.16,.12,.4,.18,.74,.18,.43,0,.75-.06,.97-.19,.14-.09,.25-.22,.33-.42,.05-.14,.08-.39,.08-.76v-.91c-.49,.67-1.11,1.01-1.86,1.01-.84,0-1.5-.35-1.99-1.06-.38-.56-.57-1.25-.57-2.09,0-1.04,.25-1.84,.75-2.39s1.13-.83,1.87-.83,1.4,.34,1.9,1.01v-.87h1.54v5.58c0,.73-.06,1.28-.18,1.65s-.29,.65-.51,.86-.51,.37-.88,.49-.83,.18-1.39,.18c-1.05,0-1.8-.18-2.24-.54s-.66-.82-.66-1.37v-.2h0Zm1.47-3.66c0,.66,.13,1.14,.38,1.45s.57,.46,.95,.46c.4,0,.74-.16,1.02-.47s.42-.78,.42-1.4-.13-1.12-.4-1.44-.6-.47-1.01-.47-.72,.15-.98,.46-.38,.77-.38,1.4h0Z"/></g><g><path class="cls-8" d="M35.45,164.81v-7.14h-2.55v-1.45h6.83v1.45h-2.54v7.14h-1.74Z"/><path class="cls-8" d="M41.75,164.81h-1.65v-6.22h1.53v.88c.26-.42,.5-.69,.71-.83s.45-.2,.71-.2c.38,0,.74,.1,1.08,.31l-.51,1.44c-.28-.18-.54-.27-.77-.27s-.43,.06-.59,.19-.29,.36-.38,.69-.14,1.03-.14,2.09v1.92h.01Z"/><path class="cls-8" d="M46.07,160.48l-1.49-.27c.17-.6,.46-1.05,.87-1.34s1.02-.43,1.83-.43c.73,0,1.28,.09,1.64,.26s.61,.39,.76,.66,.22,.76,.22,1.47l-.02,1.92c0,.55,.03,.95,.08,1.21s.15,.54,.3,.83h-1.63c-.04-.11-.1-.27-.16-.49-.03-.1-.05-.16-.06-.19-.28,.27-.58,.48-.9,.62s-.66,.21-1.03,.21c-.64,0-1.15-.17-1.51-.52s-.55-.79-.55-1.32c0-.35,.08-.67,.25-.94s.4-.49,.71-.63,.74-.27,1.31-.38c.77-.14,1.3-.28,1.6-.4v-.16c0-.32-.08-.54-.23-.68s-.45-.2-.88-.2c-.29,0-.52,.06-.69,.17s-.3,.32-.4,.61h-.02Zm2.2,1.33c-.21,.07-.54,.15-1,.25s-.76,.19-.9,.29c-.21,.15-.32,.35-.32,.58s.09,.43,.26,.6,.39,.25,.66,.25c.3,0,.58-.1,.85-.29,.2-.15,.33-.33,.39-.54,.04-.14,.06-.41,.06-.8v-.33h0Z"/><path class="cls-8" d="M57.18,164.81h-1.65v-3.18c0-.67-.04-1.11-.11-1.3s-.18-.35-.34-.46-.35-.16-.57-.16c-.29,0-.54,.08-.77,.23s-.38,.36-.47,.62-.13,.73-.13,1.43v2.82h-1.65v-6.22h1.53v.91c.54-.7,1.23-1.05,2.05-1.05,.36,0,.7,.07,1,.2s.53,.3,.68,.5,.26,.43,.32,.69,.09,.63,.09,1.11v3.87h.02Z"/><path class="cls-8" d="M58.27,163.03l1.65-.25c.07,.32,.21,.56,.43,.73s.52,.25,.9,.25c.43,0,.75-.08,.96-.23,.14-.11,.22-.26,.22-.44,0-.12-.04-.23-.12-.31s-.27-.15-.55-.22c-1.33-.29-2.17-.56-2.53-.8-.49-.34-.74-.8-.74-1.4,0-.54,.21-.99,.64-1.36s1.09-.55,1.98-.55,1.48,.14,1.9,.42,.7,.69,.86,1.23l-1.55,.29c-.07-.24-.19-.43-.38-.56s-.45-.19-.79-.19c-.43,0-.74,.06-.93,.18-.12,.09-.19,.2-.19,.33,0,.12,.05,.22,.16,.3,.15,.11,.66,.26,1.54,.46s1.49,.44,1.84,.73c.34,.29,.52,.7,.52,1.22,0,.57-.24,1.06-.71,1.47s-1.18,.62-2.12,.62c-.85,0-1.52-.17-2.01-.52s-.82-.81-.97-1.4h-.01Z"/><path class="cls-8" d="M65.52,157.74v-1.52h1.65v1.52h-1.65Zm0,7.07v-6.22h1.65v6.22h-1.65Z"/><path class="cls-8" d="M71.71,158.58v1.31h-1.12v2.51c0,.51,.01,.8,.03,.89s.07,.15,.15,.21,.17,.08,.28,.08c.15,0,.37-.05,.66-.16l.14,1.28c-.38,.16-.82,.25-1.3,.25-.3,0-.56-.05-.8-.15s-.41-.23-.52-.39-.19-.37-.23-.64c-.04-.19-.05-.58-.05-1.16v-2.71h-.76v-1.31h.76v-1.24l1.65-.96v2.2h1.11Z"/><path class="cls-8" d="M72.85,157.74v-1.52h1.65v1.52h-1.65Zm0,7.07v-6.22h1.65v6.22h-1.65Z"/><path class="cls-8" d="M75.8,161.61c0-.55,.13-1.08,.4-1.59s.65-.9,1.15-1.17,1.05-.4,1.66-.4c.94,0,1.71,.31,2.31,.92s.9,1.38,.9,2.32-.3,1.72-.91,2.34-1.37,.93-2.29,.93c-.57,0-1.11-.13-1.63-.39s-.91-.64-1.18-1.13-.4-1.1-.4-1.82h0Zm1.69,.08c0,.62,.15,1.09,.44,1.42s.65,.49,1.08,.49,.79-.16,1.08-.49,.44-.8,.44-1.43-.15-1.08-.44-1.41-.65-.49-1.08-.49-.79,.16-1.08,.49-.44,.8-.44,1.42Z"/><path class="cls-8" d="M89.17,164.81h-1.65v-3.18c0-.67-.04-1.11-.11-1.3s-.18-.35-.34-.46-.35-.16-.57-.16c-.29,0-.54,.08-.77,.23s-.38,.36-.47,.62-.13,.73-.13,1.43v2.82h-1.65v-6.22h1.53v.91c.54-.7,1.23-1.05,2.05-1.05,.36,0,.7,.07,1,.2s.53,.3,.68,.5,.26,.43,.32,.69,.09,.63,.09,1.11v3.87h.02Z"/></g><g><path class="cls-8" d="M37.11,177.22l1.64,.28c-.21,.6-.54,1.06-1,1.37s-1.02,.47-1.71,.47c-1.08,0-1.88-.35-2.4-1.06-.41-.57-.62-1.28-.62-2.14,0-1.03,.27-1.84,.81-2.42s1.22-.88,2.04-.88c.93,0,1.66,.31,2.19,.92s.79,1.55,.77,2.81h-4.12c.01,.49,.14,.87,.4,1.14s.57,.41,.95,.41c.26,0,.47-.07,.65-.21s.31-.37,.4-.68h0Zm.09-1.67c-.01-.48-.13-.84-.37-1.09s-.52-.37-.86-.37c-.36,0-.66,.13-.89,.39s-.35,.62-.35,1.07h2.47Zm-2.1-3.34l.81-1.75h1.85l-1.61,1.75h-1.05Z"/><path class="cls-8" d="M45.6,174.82l-1.62,.29c-.05-.32-.18-.57-.37-.73s-.44-.25-.75-.25c-.41,0-.74,.14-.98,.42s-.37,.76-.37,1.42c0,.74,.12,1.26,.37,1.56s.58,.46,1,.46c.31,0,.57-.09,.77-.27s.34-.48,.42-.92l1.62,.28c-.17,.74-.49,1.3-.97,1.68s-1.12,.57-1.92,.57c-.91,0-1.64-.29-2.18-.86s-.81-1.37-.81-2.38,.27-1.83,.81-2.4,1.28-.86,2.2-.86c.76,0,1.36,.16,1.81,.49s.77,.82,.96,1.49h.01Z"/><path class="cls-8" d="M46.47,176.01c0-.55,.13-1.08,.4-1.59s.65-.9,1.15-1.17,1.05-.4,1.66-.4c.94,0,1.71,.31,2.31,.92s.9,1.38,.9,2.32-.3,1.72-.91,2.34-1.37,.93-2.29,.93c-.57,0-1.11-.13-1.63-.39s-.91-.64-1.18-1.13-.4-1.1-.4-1.82h0Zm1.69,.08c0,.62,.15,1.09,.44,1.42s.65,.49,1.08,.49,.79-.16,1.08-.49,.44-.8,.44-1.43-.15-1.08-.44-1.41-.65-.49-1.08-.49-.79,.16-1.08,.49-.44,.8-.44,1.42Z"/><path class="cls-8" d="M54.18,179.21v-8.59h1.65v8.59h-1.65Z"/><path class="cls-8" d="M57.13,176.01c0-.55,.13-1.08,.4-1.59s.65-.9,1.15-1.17,1.05-.4,1.66-.4c.94,0,1.71,.31,2.31,.92s.9,1.38,.9,2.32-.3,1.72-.91,2.34-1.37,.93-2.29,.93c-.57,0-1.11-.13-1.63-.39s-.91-.64-1.18-1.13-.4-1.1-.4-1.82h0Zm1.69,.08c0,.62,.15,1.09,.44,1.42s.65,.49,1.08,.49,.79-.16,1.08-.49,.44-.8,.44-1.43-.15-1.08-.44-1.41-.65-.49-1.08-.49-.79,.16-1.08,.49-.44,.8-.44,1.42Z"/><path class="cls-8" d="M64.69,179.62l1.88,.23c.03,.22,.1,.37,.22,.45,.16,.12,.4,.18,.74,.18,.43,0,.75-.06,.97-.19,.14-.09,.25-.22,.33-.42,.05-.14,.08-.39,.08-.76v-.91c-.49,.67-1.11,1.01-1.86,1.01-.84,0-1.5-.35-1.99-1.06-.38-.56-.57-1.25-.57-2.09,0-1.04,.25-1.84,.75-2.39s1.13-.83,1.87-.83,1.4,.34,1.9,1.01v-.87h1.54v5.58c0,.73-.06,1.28-.18,1.65s-.29,.65-.51,.86-.51,.37-.88,.49-.83,.18-1.39,.18c-1.05,0-1.8-.18-2.24-.54s-.66-.82-.66-1.37v-.2h0Zm1.47-3.66c0,.66,.13,1.14,.38,1.45s.57,.46,.95,.46c.4,0,.74-.16,1.02-.47s.42-.78,.42-1.4-.13-1.12-.4-1.44-.6-.47-1.01-.47-.72,.15-.98,.46-.38,.77-.38,1.4h0Z"/><path class="cls-8" d="M72.17,172.14v-1.52h1.65v1.52h-1.65Zm0,7.07v-6.22h1.65v6.22h-1.65Z"/><path class="cls-8" d="M79.57,181.57v-3.13c-.21,.28-.48,.5-.8,.66s-.67,.24-1.04,.24c-.71,0-1.29-.27-1.75-.8-.54-.62-.81-1.46-.81-2.53,0-1,.25-1.78,.76-2.34s1.13-.84,1.88-.84c.41,0,.77,.09,1.08,.26s.57,.44,.81,.8v-.92h1.52v8.59h-1.65Zm.05-5.54c0-.64-.13-1.11-.39-1.42s-.58-.47-.98-.47-.73,.16-1,.47-.4,.82-.4,1.51,.13,1.18,.39,1.48,.58,.45,.96,.45,.71-.17,1-.51,.43-.85,.43-1.52h0Z"/><path class="cls-8" d="M86.93,179.21v-.93c-.23,.33-.52,.59-.89,.79s-.76,.29-1.17,.29-.79-.09-1.12-.28-.57-.44-.72-.77-.22-.79-.22-1.38v-3.94h1.65v2.86c0,.88,.03,1.41,.09,1.61s.17,.35,.33,.47,.36,.17,.61,.17c.28,0,.53-.08,.76-.23s.38-.35,.46-.57,.12-.79,.12-1.68v-2.62h1.65v6.22h-1.55Z"/><path class="cls-8" d="M93.77,177.22l1.64,.28c-.21,.6-.54,1.06-1,1.37s-1.02,.47-1.71,.47c-1.08,0-1.88-.35-2.4-1.06-.41-.57-.62-1.28-.62-2.14,0-1.03,.27-1.84,.81-2.42s1.22-.88,2.04-.88c.93,0,1.66,.31,2.19,.92s.79,1.55,.77,2.81h-4.12c.01,.49,.14,.87,.4,1.14s.57,.41,.95,.41c.26,0,.47-.07,.65-.21s.31-.37,.4-.68h0Zm.09-1.67c-.01-.48-.13-.84-.37-1.09s-.52-.37-.86-.37c-.36,0-.66,.13-.89,.39s-.35,.62-.35,1.07h2.47Z"/></g><g><path class="cls-8" d="M37.11,191.62l1.64,.28c-.21,.6-.54,1.06-1,1.37s-1.02,.47-1.71,.47c-1.08,0-1.88-.35-2.4-1.06-.41-.57-.62-1.28-.62-2.14,0-1.03,.27-1.84,.81-2.42s1.22-.88,2.04-.88c.93,0,1.66,.31,2.19,.92s.79,1.55,.77,2.81h-4.12c.01,.49,.14,.87,.4,1.14s.57,.41,.95,.41c.26,0,.47-.07,.65-.21s.31-.37,.4-.68h0Zm.09-1.67c-.01-.48-.13-.84-.37-1.09s-.52-.37-.86-.37c-.36,0-.66,.13-.89,.39s-.35,.62-.35,1.07h2.47Z"/><path class="cls-8" d="M43.03,187.38v1.31h-1.12v2.51c0,.51,.01,.8,.03,.89s.07,.15,.15,.21,.17,.08,.28,.08c.15,0,.37-.05,.66-.16l.14,1.28c-.38,.16-.82,.25-1.3,.25-.3,0-.56-.05-.8-.15s-.41-.23-.52-.39-.19-.37-.23-.64c-.04-.19-.05-.58-.05-1.16v-2.71h-.76v-1.31h.76v-1.24l1.65-.96v2.2h1.11Z"/><path class="cls-8" d="M46.93,191.83l1.65-.25c.07,.32,.21,.56,.43,.73s.52,.25,.9,.25c.43,0,.75-.08,.96-.23,.14-.11,.22-.26,.22-.44,0-.12-.04-.23-.12-.31s-.27-.15-.55-.22c-1.33-.29-2.17-.56-2.53-.8-.49-.34-.74-.8-.74-1.4,0-.54,.21-.99,.64-1.36s1.09-.55,1.98-.55,1.48,.14,1.9,.42,.7,.69,.86,1.23l-1.55,.29c-.07-.24-.19-.43-.38-.56s-.45-.19-.79-.19c-.43,0-.74,.06-.93,.18-.12,.09-.19,.2-.19,.33,0,.12,.05,.22,.16,.3,.15,.11,.66,.26,1.54,.46s1.49,.44,1.84,.73c.34,.29,.52,.7,.52,1.22,0,.57-.24,1.06-.71,1.47s-1.18,.62-2.12,.62c-.85,0-1.52-.17-2.01-.52s-.82-.81-.97-1.4h-.01Z"/><path class="cls-8" d="M53.8,190.41c0-.55,.13-1.08,.4-1.59s.65-.9,1.15-1.17,1.05-.4,1.66-.4c.94,0,1.71,.31,2.31,.92s.9,1.38,.9,2.32-.3,1.72-.91,2.34-1.37,.93-2.29,.93c-.57,0-1.11-.13-1.63-.39s-.91-.64-1.18-1.13-.4-1.1-.4-1.82h0Zm1.69,.08c0,.62,.15,1.09,.44,1.42s.65,.49,1.08,.49,.79-.16,1.08-.49,.44-.8,.44-1.43-.15-1.08-.44-1.41-.65-.49-1.08-.49-.79,.16-1.08,.49-.44,.8-.44,1.42Z"/><path class="cls-8" d="M66.94,189.22l-1.62,.29c-.05-.32-.18-.57-.37-.73s-.44-.25-.75-.25c-.41,0-.74,.14-.98,.42s-.37,.76-.37,1.42c0,.74,.12,1.26,.37,1.56s.58,.46,1,.46c.31,0,.57-.09,.77-.27s.34-.48,.42-.92l1.62,.28c-.17,.74-.49,1.3-.97,1.68s-1.12,.57-1.92,.57c-.91,0-1.64-.29-2.18-.86s-.81-1.37-.81-2.38,.27-1.83,.81-2.4,1.28-.86,2.2-.86c.76,0,1.36,.16,1.81,.49s.77,.82,.96,1.49h.01Z"/><path class="cls-8" d="M68.18,186.54v-1.52h1.65v1.52h-1.65Zm0,7.07v-6.22h1.65v6.22h-1.65Z"/><path class="cls-8" d="M75.12,191.62l1.64,.28c-.21,.6-.54,1.06-1,1.37s-1.02,.47-1.71,.47c-1.08,0-1.88-.35-2.4-1.06-.41-.57-.62-1.28-.62-2.14,0-1.03,.27-1.84,.81-2.42s1.22-.88,2.04-.88c.93,0,1.66,.31,2.19,.92s.79,1.55,.77,2.81h-4.12c.01,.49,.14,.87,.4,1.14s.57,.41,.95,.41c.26,0,.47-.07,.65-.21s.31-.37,.4-.68h0Zm.09-1.67c-.01-.48-.13-.84-.37-1.09s-.52-.37-.86-.37c-.36,0-.66,.13-.89,.39s-.35,.62-.35,1.07h2.47Zm-2.1-3.34l.81-1.75h1.85l-1.61,1.75h-1.05Z"/><path class="cls-8" d="M81.04,187.38v1.31h-1.12v2.51c0,.51,.01,.8,.03,.89s.07,.15,.15,.21,.17,.08,.28,.08c.15,0,.37-.05,.66-.16l.14,1.28c-.38,.16-.82,.25-1.3,.25-.3,0-.56-.05-.8-.15s-.41-.23-.52-.39-.19-.37-.23-.64c-.04-.19-.05-.58-.05-1.16v-2.71h-.76v-1.31h.76v-1.24l1.65-.96v2.2h1.11Z"/><path class="cls-8" d="M83.42,189.28l-1.49-.27c.17-.6,.46-1.05,.87-1.34s1.02-.43,1.83-.43c.73,0,1.28,.09,1.64,.26s.61,.39,.76,.66,.22,.76,.22,1.47l-.02,1.92c0,.55,.03,.95,.08,1.21s.15,.54,.3,.83h-1.63c-.04-.11-.1-.27-.16-.49-.03-.1-.05-.16-.06-.19-.28,.27-.58,.48-.9,.62s-.66,.21-1.03,.21c-.64,0-1.15-.17-1.51-.52s-.55-.79-.55-1.32c0-.35,.08-.67,.25-.94s.4-.49,.71-.63,.74-.27,1.31-.38c.77-.14,1.3-.28,1.6-.4v-.16c0-.32-.08-.54-.23-.68s-.45-.2-.88-.2c-.29,0-.52,.06-.69,.17s-.3,.32-.4,.61h-.02Zm2.2,1.33c-.21,.07-.54,.15-1,.25s-.76,.19-.9,.29c-.21,.15-.32,.35-.32,.58s.09,.43,.26,.6,.39,.25,.66,.25c.3,0,.58-.1,.85-.29,.2-.15,.33-.33,.39-.54,.04-.14,.06-.41,.06-.8v-.33h0Z"/><path class="cls-8" d="M88.86,193.6v-8.59h1.65v8.59h-1.65Z"/><path class="cls-8" d="M95.8,191.62l1.64,.28c-.21,.6-.54,1.06-1,1.37s-1.02,.47-1.71,.47c-1.08,0-1.88-.35-2.4-1.06-.41-.57-.62-1.28-.62-2.14,0-1.03,.27-1.84,.81-2.42s1.22-.88,2.04-.88c.93,0,1.66,.31,2.19,.92s.79,1.55,.77,2.81h-4.12c.01,.49,.14,.87,.4,1.14s.57,.41,.95,.41c.26,0,.47-.07,.65-.21s.31-.37,.4-.68h0Zm.09-1.67c-.01-.48-.13-.84-.37-1.09s-.52-.37-.86-.37c-.36,0-.66,.13-.89,.39s-.35,.62-.35,1.07h2.47Z"/></g><g><path class="cls-8" d="M89.24,255.36l1.68,.53c-.26,.94-.69,1.63-1.29,2.09s-1.36,.68-2.28,.68c-1.14,0-2.08-.39-2.81-1.17s-1.1-1.84-1.1-3.2c0-1.43,.37-2.54,1.11-3.33s1.71-1.19,2.91-1.19c1.05,0,1.9,.31,2.56,.93,.39,.37,.68,.89,.88,1.58l-1.72,.41c-.1-.45-.31-.8-.64-1.05s-.71-.39-1.17-.39c-.64,0-1.15,.23-1.55,.69s-.59,1.2-.59,2.22c0,1.09,.2,1.86,.59,2.32s.9,.69,1.52,.69c.46,0,.86-.15,1.19-.44s.57-.75,.71-1.38h0Z"/><path class="cls-8" d="M96.49,258.51v-.93c-.23,.33-.52,.59-.89,.79s-.76,.29-1.17,.29-.79-.09-1.12-.28-.57-.44-.72-.77-.22-.79-.22-1.38v-3.94h1.65v2.86c0,.88,.03,1.41,.09,1.61s.17,.35,.33,.47,.36,.17,.61,.17c.28,0,.53-.08,.76-.23s.38-.35,.46-.57,.12-.79,.12-1.68v-2.62h1.65v6.22h-1.55Z"/><path class="cls-8" d="M99.72,258.51v-8.59h1.65v8.59h-1.65Z"/><path class="cls-8" d="M105.91,252.29v1.31h-1.12v2.51c0,.51,.01,.8,.03,.89s.07,.15,.15,.21,.17,.08,.28,.08c.15,0,.37-.05,.66-.16l.14,1.28c-.38,.16-.82,.25-1.3,.25-.3,0-.56-.05-.8-.15s-.41-.23-.52-.39-.19-.37-.23-.64c-.04-.19-.05-.58-.05-1.16v-2.71h-.76v-1.31h.76v-1.24l1.65-.96v2.2h1.11Z"/><path class="cls-8" d="M111.15,258.51v-.93c-.23,.33-.52,.59-.89,.79s-.76,.29-1.17,.29-.79-.09-1.12-.28-.57-.44-.72-.77-.22-.79-.22-1.38v-3.94h1.65v2.86c0,.88,.03,1.41,.09,1.61s.17,.35,.33,.47,.36,.17,.61,.17c.28,0,.53-.08,.76-.23s.38-.35,.46-.57,.12-.79,.12-1.68v-2.62h1.65v6.22h-1.55Z"/><path class="cls-8" d="M115.96,258.51h-1.65v-6.22h1.53v.88c.26-.42,.5-.69,.71-.83s.45-.2,.71-.2c.38,0,.74,.1,1.08,.31l-.51,1.44c-.28-.18-.54-.27-.77-.27s-.43,.06-.59,.19-.29,.36-.38,.69-.14,1.03-.14,2.09v1.92h.01Z"/><path class="cls-8" d="M122.66,256.53l1.64,.28c-.21,.6-.54,1.06-1,1.37s-1.02,.47-1.71,.47c-1.08,0-1.88-.35-2.4-1.06-.41-.57-.62-1.28-.62-2.14,0-1.03,.27-1.84,.81-2.42s1.22-.88,2.04-.88c.93,0,1.66,.31,2.19,.92s.79,1.55,.77,2.81h-4.12c.01,.49,.14,.87,.4,1.14s.57,.41,.95,.41c.26,0,.47-.07,.65-.21s.31-.37,.4-.68h0Zm.09-1.67c-.01-.48-.13-.84-.37-1.09s-.52-.37-.86-.37c-.36,0-.66,.13-.89,.39s-.35,.62-.35,1.07h2.47Z"/><path class="cls-8" d="M132.67,256.53l1.64,.28c-.21,.6-.54,1.06-1,1.37s-1.02,.47-1.71,.47c-1.08,0-1.88-.35-2.4-1.06-.41-.57-.62-1.28-.62-2.14,0-1.03,.27-1.84,.81-2.42s1.22-.88,2.04-.88c.93,0,1.66,.31,2.19,.92s.79,1.55,.77,2.81h-4.12c.01,.49,.14,.87,.4,1.14s.57,.41,.95,.41c.26,0,.47-.07,.65-.21s.31-.37,.4-.68h0Zm.09-1.67c-.01-.48-.13-.84-.37-1.09s-.52-.37-.86-.37c-.36,0-.66,.13-.89,.39s-.35,.62-.35,1.07h2.47Z"/><path class="cls-8" d="M138.59,252.29v1.31h-1.12v2.51c0,.51,.01,.8,.03,.89s.07,.15,.15,.21,.17,.08,.28,.08c.15,0,.37-.05,.66-.16l.14,1.28c-.38,.16-.82,.25-1.3,.25-.3,0-.56-.05-.8-.15s-.41-.23-.52-.39-.19-.37-.23-.64c-.04-.19-.05-.58-.05-1.16v-2.71h-.76v-1.31h.76v-1.24l1.65-.96v2.2h1.11Z"/></g><g><path class="cls-8" d="M85.3,272.92h-1.65v-6.22h1.53v.88c.26-.42,.5-.69,.71-.83s.45-.2,.71-.2c.38,0,.74,.1,1.08,.31l-.51,1.44c-.28-.18-.54-.27-.77-.27s-.43,.06-.59,.19-.29,.36-.38,.69-.14,1.03-.14,2.09v1.92h.01Z"/><path class="cls-8" d="M92,270.93l1.64,.28c-.21,.6-.54,1.06-1,1.37s-1.02,.47-1.71,.47c-1.08,0-1.88-.35-2.4-1.06-.41-.57-.62-1.28-.62-2.14,0-1.03,.27-1.84,.81-2.42s1.22-.88,2.04-.88c.93,0,1.66,.31,2.19,.92s.79,1.55,.77,2.81h-4.12c.01,.49,.14,.87,.4,1.14s.57,.41,.95,.41c.26,0,.47-.07,.65-.21s.31-.37,.4-.68h0Zm.09-1.67c-.01-.48-.13-.84-.37-1.09s-.52-.37-.86-.37c-.36,0-.66,.13-.89,.39s-.35,.62-.35,1.07h2.47Z"/><path class="cls-8" d="M94.49,271.14l1.65-.25c.07,.32,.21,.56,.43,.73s.52,.25,.9,.25c.43,0,.75-.08,.96-.23,.14-.11,.22-.26,.22-.44,0-.12-.04-.23-.12-.31s-.27-.15-.55-.22c-1.33-.29-2.17-.56-2.53-.8-.49-.34-.74-.8-.74-1.4,0-.54,.21-.99,.64-1.36s1.09-.55,1.98-.55,1.48,.14,1.9,.42,.7,.69,.86,1.23l-1.55,.29c-.07-.24-.19-.43-.38-.56s-.45-.19-.79-.19c-.43,0-.74,.06-.93,.18-.12,.09-.19,.2-.19,.33,0,.12,.05,.22,.16,.3,.15,.11,.66,.26,1.54,.46s1.49,.44,1.84,.73c.34,.29,.52,.7,.52,1.22,0,.57-.24,1.06-.71,1.47s-1.18,.62-2.12,.62c-.85,0-1.52-.17-2.01-.52s-.82-.81-.97-1.4h-.01Z"/><path class="cls-8" d="M101.7,266.69h1.54v.91c.2-.31,.47-.57,.81-.76s.72-.29,1.13-.29c.72,0,1.34,.28,1.84,.85s.76,1.36,.76,2.37-.25,1.85-.76,2.42-1.12,.86-1.85,.86c-.34,0-.66-.07-.93-.21s-.57-.37-.88-.7v3.13h-1.65v-8.59h-.01Zm1.63,3.02c0,.7,.14,1.22,.42,1.55s.62,.5,1.01,.5,.7-.15,.96-.46,.38-.81,.38-1.51c0-.65-.13-1.14-.39-1.45s-.59-.47-.97-.47-.74,.16-1,.47-.4,.77-.4,1.38h-.01Z"/><path class="cls-8" d="M108.69,269.72c0-.55,.13-1.08,.4-1.59s.65-.9,1.15-1.17,1.05-.4,1.66-.4c.94,0,1.71,.31,2.31,.92s.9,1.38,.9,2.32-.3,1.72-.91,2.34-1.37,.93-2.29,.93c-.57,0-1.11-.13-1.63-.39s-.91-.64-1.18-1.13-.4-1.1-.4-1.82h0Zm1.69,.08c0,.62,.15,1.09,.44,1.42s.65,.49,1.08,.49,.79-.16,1.08-.49,.44-.8,.44-1.43-.15-1.08-.44-1.41-.65-.49-1.08-.49-.79,.16-1.08,.49-.44,.8-.44,1.42h0Z"/><path class="cls-8" d="M122.07,272.92h-1.65v-3.18c0-.67-.04-1.11-.11-1.3s-.18-.35-.34-.46-.35-.16-.57-.16c-.29,0-.54,.08-.77,.23s-.38,.36-.47,.62-.13,.73-.13,1.43v2.82h-1.65v-6.22h1.53v.91c.54-.7,1.23-1.05,2.05-1.05,.36,0,.7,.07,1,.2s.53,.3,.68,.5,.26,.43,.32,.69,.09,.63,.09,1.11v3.87h.02Z"/><path class="cls-8" d="M123.16,271.14l1.65-.25c.07,.32,.21,.56,.43,.73s.52,.25,.9,.25c.43,0,.75-.08,.96-.23,.14-.11,.22-.26,.22-.44,0-.12-.04-.23-.12-.31s-.27-.15-.55-.22c-1.33-.29-2.17-.56-2.53-.8-.49-.34-.74-.8-.74-1.4,0-.54,.21-.99,.64-1.36s1.09-.55,1.98-.55,1.48,.14,1.9,.42,.7,.69,.86,1.23l-1.55,.29c-.07-.24-.19-.43-.38-.56s-.45-.19-.79-.19c-.43,0-.74,.06-.93,.18-.12,.09-.19,.2-.19,.33,0,.12,.05,.22,.16,.3,.15,.11,.66,.26,1.54,.46s1.49,.44,1.84,.73c.34,.29,.52,.7,.52,1.22,0,.57-.24,1.06-.71,1.47s-1.18,.62-2.12,.62c-.85,0-1.52-.17-2.01-.52s-.82-.81-.97-1.4h-.01Z"/><path class="cls-8" d="M131.64,268.59l-1.49-.27c.17-.6,.46-1.05,.87-1.34s1.02-.43,1.83-.43c.73,0,1.28,.09,1.64,.26s.61,.39,.76,.66,.22,.76,.22,1.47l-.02,1.92c0,.55,.03,.95,.08,1.21s.15,.54,.3,.83h-1.63c-.04-.11-.1-.27-.16-.49-.03-.1-.05-.16-.06-.19-.28,.27-.58,.48-.9,.62s-.66,.21-1.03,.21c-.64,0-1.15-.17-1.51-.52s-.55-.79-.55-1.32c0-.35,.08-.67,.25-.94s.4-.49,.71-.63,.74-.27,1.31-.38c.77-.14,1.3-.28,1.6-.4v-.16c0-.32-.08-.54-.23-.68s-.45-.2-.88-.2c-.29,0-.52,.06-.69,.17s-.3,.32-.4,.61h-.02Zm2.2,1.33c-.21,.07-.54,.15-1,.25s-.76,.19-.9,.29c-.21,.15-.32,.35-.32,.58s.09,.43,.26,.6,.39,.25,.66,.25c.3,0,.58-.1,.85-.29,.2-.15,.33-.33,.39-.54,.04-.14,.06-.41,.06-.8v-.33h0Z"/><path class="cls-8" d="M137.01,272.92v-8.59h1.65v3.09c.51-.58,1.11-.87,1.8-.87,.76,0,1.38,.27,1.88,.82s.74,1.34,.74,2.36-.25,1.88-.76,2.46-1.12,.86-1.84,.86c-.36,0-.71-.09-1.05-.27s-.64-.44-.89-.79v.91h-1.53v.02Zm1.63-3.25c0,.64,.1,1.12,.3,1.43,.29,.44,.66,.66,1.14,.66,.36,0,.67-.16,.93-.47s.38-.8,.38-1.47c0-.71-.13-1.22-.39-1.54s-.59-.47-.99-.47-.72,.15-.98,.46-.39,.77-.39,1.4h0Z"/><path class="cls-8" d="M144.41,265.85v-1.52h1.65v1.52h-1.65Zm0,7.07v-6.22h1.65v6.22h-1.65Z"/><path class="cls-8" d="M147.75,272.92v-8.59h1.65v8.59h-1.65Z"/><path class="cls-8" d="M151.08,265.85v-1.52h1.65v1.52h-1.65Zm0,7.07v-6.22h1.65v6.22h-1.65Z"/><path class="cls-8" d="M157.27,266.69v1.31h-1.12v2.51c0,.51,.01,.8,.03,.89s.07,.15,.15,.21,.17,.08,.28,.08c.15,0,.37-.05,.66-.16l.14,1.28c-.38,.16-.82,.25-1.3,.25-.3,0-.56-.05-.8-.15s-.41-.23-.52-.39-.19-.37-.23-.64c-.04-.19-.05-.58-.05-1.16v-2.71h-.76v-1.31h.76v-1.24l1.65-.96v2.2h1.11Z"/><path class="cls-8" d="M162.01,270.93l1.64,.28c-.21,.6-.54,1.06-1,1.37s-1.02,.47-1.71,.47c-1.08,0-1.88-.35-2.4-1.06-.41-.57-.62-1.28-.62-2.14,0-1.03,.27-1.84,.81-2.42s1.22-.88,2.04-.88c.93,0,1.66,.31,2.19,.92s.79,1.55,.77,2.81h-4.12c.01,.49,.14,.87,.4,1.14s.57,.41,.95,.41c.26,0,.47-.07,.65-.21s.31-.37,.4-.68h0Zm.09-1.67c-.01-.48-.13-.84-.37-1.09s-.52-.37-.86-.37c-.36,0-.66,.13-.89,.39s-.35,.62-.35,1.07h2.47Zm-2.1-3.34l.81-1.75h1.85l-1.61,1.75h-1.05Z"/></g><g><path class="cls-8" d="M89.43,287.32h-1.53v-.91c-.25,.36-.55,.62-.9,.79s-.69,.26-1.05,.26c-.71,0-1.33-.29-1.84-.86s-.76-1.38-.76-2.41,.25-1.86,.74-2.41,1.12-.82,1.88-.82c.7,0,1.3,.29,1.8,.87v-3.09h1.65v8.59h.01Zm-4.39-3.26c0,.66,.09,1.14,.28,1.44,.27,.43,.64,.64,1.11,.64,.38,0,.7-.16,.97-.48s.4-.8,.4-1.44c0-.71-.13-1.23-.39-1.54s-.59-.47-.99-.47-.72,.16-.98,.47-.4,.77-.4,1.39h0Z"/><path class="cls-8" d="M91.02,278.75h1.65v1.18c0,.48-.04,.85-.12,1.13s-.24,.52-.47,.74-.52,.39-.87,.52l-.32-.68c.33-.11,.57-.26,.71-.45s.21-.45,.22-.79h-.8v-1.65h0Z"/><path class="cls-8" d="M98,285.33l1.64,.28c-.21,.6-.54,1.06-1,1.37s-1.02,.47-1.71,.47c-1.08,0-1.88-.35-2.4-1.06-.41-.57-.62-1.28-.62-2.14,0-1.03,.27-1.84,.81-2.42s1.22-.88,2.04-.88c.93,0,1.66,.31,2.19,.92s.79,1.55,.77,2.81h-4.12c.01,.49,.14,.87,.4,1.14s.57,.41,.95,.41c.26,0,.47-.07,.65-.21s.31-.37,.4-.68h0Zm.09-1.67c-.01-.48-.13-.84-.37-1.09s-.52-.37-.86-.37c-.36,0-.66,.13-.89,.39s-.35,.62-.35,1.07h2.47Z"/><path class="cls-8" d="M106.73,287.32h-1.65v-3.18c0-.67-.04-1.11-.11-1.3s-.18-.35-.34-.46-.35-.16-.57-.16c-.29,0-.54,.08-.77,.23s-.38,.36-.47,.62-.13,.73-.13,1.43v2.82h-1.65v-6.22h1.53v.91c.54-.7,1.23-1.05,2.05-1.05,.36,0,.7,.07,1,.2s.53,.3,.68,.5,.26,.43,.32,.69,.09,.63,.09,1.11v3.87h.02Z"/><path class="cls-8" d="M111.25,281.09v1.31h-1.12v2.51c0,.51,.01,.8,.03,.89s.07,.15,.15,.21,.17,.08,.28,.08c.15,0,.37-.05,.66-.16l.14,1.28c-.38,.16-.82,.25-1.3,.25-.3,0-.56-.05-.8-.15s-.41-.23-.52-.39-.19-.37-.23-.64c-.04-.19-.05-.58-.05-1.16v-2.71h-.76v-1.31h.76v-1.24l1.65-.96v2.2h1.11Z"/><path class="cls-8" d="M113.97,287.32h-1.65v-6.22h1.53v.88c.26-.42,.5-.69,.71-.83s.45-.2,.71-.2c.38,0,.74,.1,1.08,.31l-.51,1.44c-.28-.18-.54-.27-.77-.27s-.43,.06-.59,.19-.29,.36-.38,.69-.14,1.03-.14,2.09v1.92h.01Z"/><path class="cls-8" d="M120.67,285.33l1.64,.28c-.21,.6-.54,1.06-1,1.37s-1.02,.47-1.71,.47c-1.08,0-1.88-.35-2.4-1.06-.41-.57-.62-1.28-.62-2.14,0-1.03,.27-1.84,.81-2.42s1.22-.88,2.04-.88c.93,0,1.66,.31,2.19,.92s.79,1.55,.77,2.81h-4.12c.01,.49,.14,.87,.4,1.14s.57,.41,.95,.41c.26,0,.47-.07,.65-.21s.31-.37,.4-.68h0Zm.09-1.67c-.01-.48-.13-.84-.37-1.09s-.52-.37-.86-.37c-.36,0-.66,.13-.89,.39s-.35,.62-.35,1.07h2.47Z"/><path class="cls-8" d="M123.69,281.09h1.54v.91c.2-.31,.47-.57,.81-.76s.72-.29,1.13-.29c.72,0,1.34,.28,1.84,.85s.76,1.36,.76,2.37-.25,1.85-.76,2.42-1.12,.86-1.85,.86c-.34,0-.66-.07-.93-.21s-.57-.37-.88-.7v3.13h-1.65v-8.59h-.01Zm1.63,3.02c0,.7,.14,1.22,.42,1.55s.62,.5,1.01,.5,.7-.15,.96-.46,.38-.81,.38-1.51c0-.65-.13-1.14-.39-1.45s-.59-.47-.97-.47-.74,.16-1,.47-.4,.77-.4,1.38h-.01Z"/><path class="cls-8" d="M132.64,287.32h-1.65v-6.22h1.53v.88c.26-.42,.5-.69,.71-.83s.45-.2,.71-.2c.38,0,.74,.1,1.08,.31l-.51,1.44c-.28-.18-.54-.27-.77-.27s-.43,.06-.59,.19-.29,.36-.38,.69-.14,1.03-.14,2.09v1.92h.01Z"/><path class="cls-8" d="M135.74,280.25v-1.52h1.65v1.52h-1.65Zm0,7.07v-6.22h1.65v6.22h-1.65Z"/><path class="cls-8" d="M138.49,285.54l1.65-.25c.07,.32,.21,.56,.43,.73s.52,.25,.9,.25c.43,0,.75-.08,.96-.23,.14-.11,.22-.26,.22-.44,0-.12-.04-.23-.12-.31s-.27-.15-.55-.22c-1.33-.29-2.17-.56-2.53-.8-.49-.34-.74-.8-.74-1.4,0-.54,.21-.99,.64-1.36s1.09-.55,1.98-.55,1.48,.14,1.9,.42,.7,.69,.86,1.23l-1.55,.29c-.07-.24-.19-.43-.38-.56s-.45-.19-.79-.19c-.43,0-.74,.06-.93,.18-.12,.09-.19,.2-.19,.33,0,.12,.05,.22,.16,.3,.15,.11,.66,.26,1.54,.46s1.49,.44,1.84,.73c.34,.29,.52,.7,.52,1.22,0,.57-.24,1.06-.71,1.47s-1.18,.62-2.12,.62c-.85,0-1.52-.17-2.01-.52s-.82-.81-.97-1.4h-.01Z"/><path class="cls-8" d="M149.35,285.33l1.64,.28c-.21,.6-.54,1.06-1,1.37s-1.02,.47-1.71,.47c-1.08,0-1.88-.35-2.4-1.06-.41-.57-.62-1.28-.62-2.14,0-1.03,.27-1.84,.81-2.42s1.22-.88,2.04-.88c.93,0,1.66,.31,2.19,.92s.79,1.55,.77,2.81h-4.12c.01,.49,.14,.87,.4,1.14s.57,.41,.95,.41c.26,0,.47-.07,.65-.21s.31-.37,.4-.68h0Zm.09-1.67c-.01-.48-.13-.84-.37-1.09s-.52-.37-.86-.37c-.36,0-.66,.13-.89,.39s-.35,.62-.35,1.07h2.47Z"/></g><g><path d="M210.13,255.36l1.68,.53c-.26,.94-.69,1.63-1.29,2.09s-1.36,.68-2.28,.68c-1.14,0-2.08-.39-2.81-1.17s-1.1-1.84-1.1-3.2c0-1.43,.37-2.54,1.11-3.33s1.71-1.19,2.91-1.19c1.05,0,1.9,.31,2.56,.93,.39,.37,.68,.89,.88,1.58l-1.72,.41c-.1-.45-.31-.8-.64-1.05s-.71-.39-1.17-.39c-.64,0-1.15,.23-1.55,.69s-.59,1.2-.59,2.22c0,1.09,.2,1.86,.59,2.32s.9,.69,1.52,.69c.46,0,.86-.15,1.19-.44s.57-.75,.71-1.38h0Z"/><path d="M214.87,258.51h-1.65v-6.22h1.53v.88c.26-.42,.5-.69,.71-.83s.45-.2,.71-.2c.38,0,.74,.1,1.08,.31l-.51,1.44c-.28-.18-.54-.27-.77-.27s-.43,.06-.59,.19-.29,.36-.38,.69-.14,1.03-.14,2.09v1.92h.01Z"/><path d="M221.56,256.53l1.64,.28c-.21,.6-.54,1.06-1,1.37s-1.02,.47-1.71,.47c-1.08,0-1.88-.35-2.4-1.06-.41-.57-.62-1.28-.62-2.14,0-1.03,.27-1.84,.81-2.42s1.22-.88,2.04-.88c.93,0,1.66,.31,2.19,.92s.79,1.55,.77,2.81h-4.12c.01,.49,.14,.87,.4,1.14s.57,.41,.95,.41c.26,0,.47-.07,.65-.21s.31-.37,.4-.68h0Zm.09-1.67c-.01-.48-.13-.84-.37-1.09s-.52-.37-.86-.37c-.36,0-.66,.13-.89,.39s-.35,.62-.35,1.07h2.47Zm-2.1-3.34l.81-1.75h1.85l-1.61,1.75h-1.05Z"/><path d="M225.87,254.19l-1.49-.27c.17-.6,.46-1.05,.87-1.34s1.02-.43,1.83-.43c.73,0,1.28,.09,1.64,.26s.61,.39,.76,.66,.22,.76,.22,1.47l-.02,1.92c0,.55,.03,.95,.08,1.21s.15,.54,.3,.83h-1.63c-.04-.11-.1-.27-.16-.49-.03-.1-.05-.16-.06-.19-.28,.27-.58,.48-.9,.62s-.66,.21-1.03,.21c-.64,0-1.15-.17-1.51-.52s-.55-.79-.55-1.32c0-.35,.08-.67,.25-.94s.4-.49,.71-.63,.74-.27,1.31-.38c.77-.14,1.3-.28,1.6-.4v-.16c0-.32-.08-.54-.23-.68s-.45-.2-.88-.2c-.29,0-.52,.06-.69,.17s-.3,.32-.4,.61h-.02Zm2.2,1.33c-.21,.07-.54,.15-1,.25s-.76,.19-.9,.29c-.21,.15-.32,.35-.32,.58s.09,.43,.26,.6,.39,.25,.66,.25c.3,0,.58-.1,.85-.29,.2-.15,.33-.33,.39-.54,.04-.14,.06-.41,.06-.8v-.33h0Z"/><path d="M234.16,252.29v1.31h-1.12v2.51c0,.51,.01,.8,.03,.89s.07,.15,.15,.21,.17,.08,.28,.08c.15,0,.37-.05,.66-.16l.14,1.28c-.38,.16-.82,.25-1.3,.25-.3,0-.56-.05-.8-.15s-.41-.23-.52-.39-.19-.37-.23-.64c-.04-.19-.05-.58-.05-1.16v-2.71h-.76v-1.31h.76v-1.24l1.65-.96v2.2h1.11Z"/><path d="M235.3,251.45v-1.52h1.65v1.52h-1.65Zm0,7.07v-6.22h1.65v6.22h-1.65Z"/><path d="M238.26,255.32c0-.55,.13-1.08,.4-1.59s.65-.9,1.15-1.17,1.05-.4,1.66-.4c.94,0,1.71,.31,2.31,.92s.9,1.38,.9,2.32-.3,1.72-.91,2.34-1.37,.93-2.29,.93c-.57,0-1.11-.13-1.63-.39s-.91-.64-1.18-1.13-.4-1.1-.4-1.82h-.01Zm1.69,.08c0,.62,.15,1.09,.44,1.42s.65,.49,1.08,.49,.79-.16,1.08-.49,.44-.8,.44-1.43-.15-1.08-.44-1.41-.65-.49-1.08-.49-.79,.16-1.08,.49-.44,.8-.44,1.42h0Z"/><path d="M251.63,258.51h-1.65v-3.18c0-.67-.04-1.11-.11-1.3s-.18-.35-.34-.46-.35-.16-.57-.16c-.29,0-.54,.08-.77,.23s-.38,.36-.47,.62-.13,.73-.13,1.43v2.82h-1.65v-6.22h1.53v.91c.54-.7,1.23-1.05,2.05-1.05,.36,0,.7,.07,1,.2s.53,.3,.68,.5,.26,.43,.32,.69,.09,.63,.09,1.11v3.87h.02Z"/><path d="M260.24,256.53l1.64,.28c-.21,.6-.54,1.06-1,1.37s-1.02,.47-1.71,.47c-1.08,0-1.88-.35-2.4-1.06-.41-.57-.62-1.28-.62-2.14,0-1.03,.27-1.84,.81-2.42s1.22-.88,2.04-.88c.93,0,1.66,.31,2.19,.92s.79,1.55,.77,2.81h-4.12c.01,.49,.14,.87,.4,1.14s.57,.41,.95,.41c.26,0,.47-.07,.65-.21s.31-.37,.4-.68h0Zm.09-1.67c-.01-.48-.13-.84-.37-1.09s-.52-.37-.86-.37c-.36,0-.66,.13-.89,.39s-.35,.62-.35,1.07h2.47Z"/><path d="M266.16,252.29v1.31h-1.12v2.51c0,.51,.01,.8,.03,.89s.07,.15,.15,.21,.17,.08,.28,.08c.15,0,.37-.05,.66-.16l.14,1.28c-.38,.16-.82,.25-1.3,.25-.3,0-.56-.05-.8-.15s-.41-.23-.52-.39-.19-.37-.23-.64c-.04-.19-.05-.58-.05-1.16v-2.71h-.76v-1.31h.76v-1.24l1.65-.96v2.2h1.11Z"/></g><g><path d="M204.58,266.69h1.54v.91c.2-.31,.47-.57,.81-.76s.72-.29,1.13-.29c.72,0,1.34,.28,1.84,.85s.76,1.36,.76,2.37-.25,1.85-.76,2.42-1.12,.86-1.85,.86c-.34,0-.66-.07-.93-.21s-.57-.37-.88-.7v3.13h-1.65v-8.59h-.01Zm1.63,3.02c0,.7,.14,1.22,.42,1.55s.62,.5,1.01,.5,.7-.15,.96-.46,.38-.81,.38-1.51c0-.65-.13-1.14-.39-1.45s-.59-.47-.97-.47-.74,.16-1,.47-.4,.77-.4,1.38h-.01Z"/><path d="M213.53,272.92h-1.65v-6.22h1.53v.88c.26-.42,.5-.69,.71-.83s.45-.2,.71-.2c.38,0,.74,.1,1.08,.31l-.51,1.44c-.28-.18-.54-.27-.77-.27s-.43,.06-.59,.19-.29,.36-.38,.69-.14,1.03-.14,2.09v1.92h.01Z"/><path d="M220.23,270.93l1.64,.28c-.21,.6-.54,1.06-1,1.37s-1.02,.47-1.71,.47c-1.08,0-1.88-.35-2.4-1.06-.41-.57-.62-1.28-.62-2.14,0-1.03,.27-1.84,.81-2.42s1.22-.88,2.04-.88c.93,0,1.66,.31,2.19,.92s.79,1.55,.77,2.81h-4.12c.01,.49,.14,.87,.4,1.14s.57,.41,.95,.41c.26,0,.47-.07,.65-.21s.31-.37,.4-.68h0Zm.09-1.67c-.01-.48-.13-.84-.37-1.09s-.52-.37-.86-.37c-.36,0-.66,.13-.89,.39s-.35,.62-.35,1.07h2.47Zm-2.1-3.34l.81-1.75h1.85l-1.61,1.75h-1.05Z"/><path d="M222.72,271.14l1.65-.25c.07,.32,.21,.56,.43,.73s.52,.25,.9,.25c.43,0,.75-.08,.96-.23,.14-.11,.22-.26,.22-.44,0-.12-.04-.23-.12-.31s-.27-.15-.55-.22c-1.33-.29-2.17-.56-2.53-.8-.49-.34-.74-.8-.74-1.4,0-.54,.21-.99,.64-1.36s1.09-.55,1.98-.55,1.48,.14,1.9,.42,.7,.69,.86,1.23l-1.55,.29c-.07-.24-.19-.43-.38-.56s-.45-.19-.79-.19c-.43,0-.74,.06-.93,.18-.12,.09-.19,.2-.19,.33,0,.12,.05,.22,.16,.3,.15,.11,.66,.26,1.54,.46s1.49,.44,1.84,.73c.34,.29,.52,.7,.52,1.22,0,.57-.24,1.06-.71,1.47s-1.18,.62-2.12,.62c-.85,0-1.52-.17-2.01-.52s-.82-.81-.97-1.4h-.01Z"/><path d="M233.58,270.93l1.64,.28c-.21,.6-.54,1.06-1,1.37s-1.02,.47-1.71,.47c-1.08,0-1.88-.35-2.4-1.06-.41-.57-.62-1.28-.62-2.14,0-1.03,.27-1.84,.81-2.42s1.22-.88,2.04-.88c.93,0,1.66,.31,2.19,.92s.79,1.55,.77,2.81h-4.12c.01,.49,.14,.87,.4,1.14s.57,.41,.95,.41c.26,0,.47-.07,.65-.21s.31-.37,.4-.68h0Zm.09-1.67c-.01-.48-.13-.84-.37-1.09s-.52-.37-.86-.37c-.36,0-.66,.13-.89,.39s-.35,.62-.35,1.07h2.47Z"/><path d="M238.22,272.92h-1.65v-6.22h1.53v.88c.26-.42,.5-.69,.71-.83,.21-.14,.45-.2,.71-.2,.38,0,.74,.1,1.08,.31l-.51,1.44c-.28-.18-.54-.27-.77-.27s-.43,.06-.59,.19-.29,.36-.38,.69-.14,1.03-.14,2.09v1.92h.01Z"/><path d="M243.03,272.92l-2.51-6.22h1.73l1.17,3.18,.34,1.06c.09-.27,.15-.45,.17-.53,.05-.18,.11-.35,.18-.53l1.18-3.18h1.69l-2.47,6.22h-1.48Z"/><path d="M249.22,268.59l-1.49-.27c.17-.6,.46-1.05,.87-1.34s1.02-.43,1.83-.43c.73,0,1.28,.09,1.64,.26s.61,.39,.76,.66,.22,.76,.22,1.47l-.02,1.92c0,.55,.03,.95,.08,1.21s.15,.54,.3,.83h-1.63c-.04-.11-.1-.27-.16-.49-.03-.1-.05-.16-.06-.19-.28,.27-.58,.48-.9,.62s-.66,.21-1.03,.21c-.64,0-1.15-.17-1.51-.52s-.55-.79-.55-1.32c0-.35,.08-.67,.25-.94s.4-.49,.71-.63,.74-.27,1.31-.38c.77-.14,1.3-.28,1.6-.4v-.16c0-.32-.08-.54-.23-.68s-.45-.2-.88-.2c-.29,0-.52,.06-.69,.17s-.3,.32-.4,.61h-.02Zm2.2,1.33c-.21,.07-.54,.15-1,.25s-.76,.19-.9,.29c-.21,.15-.32,.35-.32,.58s.09,.43,.26,.6,.39,.25,.66,.25c.3,0,.58-.1,.85-.29,.2-.15,.33-.33,.39-.54,.04-.14,.06-.41,.06-.8v-.33h0Z"/><path d="M257.52,266.69v1.31h-1.12v2.51c0,.51,.01,.8,.03,.89s.07,.15,.15,.21,.17,.08,.28,.08c.15,0,.37-.05,.66-.16l.14,1.28c-.38,.16-.82,.25-1.3,.25-.3,0-.56-.05-.8-.15s-.41-.23-.52-.39-.19-.37-.23-.64c-.04-.19-.05-.58-.05-1.16v-2.71h-.76v-1.31h.76v-1.24l1.65-.96v2.2h1.11Z"/><path d="M258.66,265.85v-1.52h1.65v1.52h-1.65Zm0,7.07v-6.22h1.65v6.22h-1.65Z"/><path d="M261.61,269.72c0-.55,.13-1.08,.4-1.59s.65-.9,1.15-1.17,1.05-.4,1.66-.4c.94,0,1.71,.31,2.31,.92s.9,1.38,.9,2.32-.3,1.72-.91,2.34-1.37,.93-2.29,.93c-.57,0-1.11-.13-1.63-.39s-.91-.64-1.18-1.13-.4-1.1-.4-1.82h-.01Zm1.69,.08c0,.62,.15,1.09,.44,1.42s.65,.49,1.08,.49,.79-.16,1.08-.49,.44-.8,.44-1.43-.15-1.08-.44-1.41-.65-.49-1.08-.49-.79,.16-1.08,.49-.44,.8-.44,1.42h0Z"/><path d="M274.98,272.92h-1.65v-3.18c0-.67-.04-1.11-.11-1.3s-.18-.35-.34-.46-.35-.16-.57-.16c-.29,0-.54,.08-.77,.23s-.38,.36-.47,.62-.13,.73-.13,1.43v2.82h-1.65v-6.22h1.53v.91c.54-.7,1.23-1.05,2.05-1.05,.36,0,.7,.07,1,.2s.53,.3,.68,.5,.26,.43,.32,.69,.09,.63,.09,1.11v3.87h.02Z"/></g><g><path d="M210.33,287.32h-1.53v-.91c-.25,.36-.55,.62-.9,.79s-.69,.26-1.05,.26c-.71,0-1.33-.29-1.84-.86s-.76-1.38-.76-2.41,.25-1.86,.74-2.41,1.12-.82,1.88-.82c.7,0,1.3,.29,1.8,.87v-3.09h1.65v8.59h.01Zm-4.39-3.26c0,.66,.09,1.14,.28,1.44,.27,.43,.64,.64,1.11,.64,.38,0,.7-.16,.97-.48s.4-.8,.4-1.44c0-.71-.13-1.23-.39-1.54s-.59-.47-.99-.47-.72,.16-.98,.47-.4,.77-.4,1.39h0Z"/><path d="M215.56,285.33l1.64,.28c-.21,.6-.54,1.06-1,1.37s-1.02,.47-1.71,.47c-1.08,0-1.88-.35-2.4-1.06-.41-.57-.62-1.28-.62-2.14,0-1.03,.27-1.84,.81-2.42s1.22-.88,2.04-.88c.93,0,1.66,.31,2.19,.92s.79,1.55,.77,2.81h-4.12c.01,.49,.14,.87,.4,1.14s.57,.41,.95,.41c.26,0,.47-.07,.65-.21s.31-.37,.4-.68h0Zm.09-1.67c-.01-.48-.13-.84-.37-1.09s-.52-.37-.86-.37c-.36,0-.66,.13-.89,.39s-.35,.62-.35,1.07h2.47Z"/><path d="M223.67,287.32l-2.51-6.22h1.73l1.17,3.18,.34,1.06c.09-.27,.15-.45,.17-.53,.05-.18,.11-.35,.18-.53l1.18-3.18h1.69l-2.47,6.22h-1.48Z"/><path d="M229.87,282.99l-1.49-.27c.17-.6,.46-1.05,.87-1.34s1.02-.43,1.83-.43c.73,0,1.28,.09,1.64,.26s.61,.39,.76,.66,.22,.76,.22,1.47l-.02,1.92c0,.55,.03,.95,.08,1.21s.15,.54,.3,.83h-1.63c-.04-.11-.1-.27-.16-.49-.03-.1-.05-.16-.06-.19-.28,.27-.58,.48-.9,.62s-.66,.21-1.03,.21c-.64,0-1.15-.17-1.51-.52s-.55-.79-.55-1.32c0-.35,.08-.67,.25-.94s.4-.49,.71-.63,.74-.27,1.31-.38c.77-.14,1.3-.28,1.6-.4v-.16c0-.32-.08-.54-.23-.68s-.45-.2-.88-.2c-.29,0-.52,.06-.69,.17s-.3,.32-.4,.61h-.02Zm2.2,1.33c-.21,.07-.54,.15-1,.25s-.76,.19-.9,.29c-.21,.15-.32,.35-.32,.58s.09,.43,.26,.6,.39,.25,.66,.25c.3,0,.58-.1,.85-.29,.2-.15,.33-.33,.39-.54,.04-.14,.06-.41,.06-.8v-.33h0Z"/><path d="M235.31,287.32v-8.59h1.65v8.59h-1.65Z"/><path d="M242.25,285.33l1.64,.28c-.21,.6-.54,1.06-1,1.37s-1.02,.47-1.71,.47c-1.08,0-1.88-.35-2.4-1.06-.41-.57-.62-1.28-.62-2.14,0-1.03,.27-1.84,.81-2.42s1.22-.88,2.04-.88c.93,0,1.66,.31,2.19,.92s.79,1.55,.77,2.81h-4.12c.01,.49,.14,.87,.4,1.14s.57,.41,.95,.41c.26,0,.47-.07,.65-.21s.31-.37,.4-.68h0Zm.09-1.67c-.01-.48-.13-.84-.37-1.09s-.52-.37-.86-.37c-.36,0-.66,.13-.89,.39s-.35,.62-.35,1.07h2.47Z"/><path d="M249.41,287.32v-.93c-.23,.33-.52,.59-.89,.79s-.76,.29-1.17,.29-.79-.09-1.12-.28-.57-.44-.72-.77-.22-.79-.22-1.38v-3.94h1.65v2.86c0,.88,.03,1.41,.09,1.61s.17,.35,.33,.47,.36,.17,.61,.17c.28,0,.53-.08,.76-.23s.38-.35,.46-.57,.12-.79,.12-1.68v-2.62h1.65v6.22h-1.55Z"/><path d="M254.22,287.32h-1.65v-6.22h1.53v.88c.26-.42,.5-.69,.71-.83s.45-.2,.71-.2c.38,0,.74,.1,1.08,.31l-.51,1.44c-.28-.18-.54-.27-.77-.27s-.43,.06-.59,.19-.29,.36-.38,.69-.14,1.03-.14,2.09v1.92h.01Z"/></g></g></svg>