<?xml version="1.0" encoding="utf-8"?>
<svg version="1.1" id="Layer_1" xmlns="http://www.w3.org/2000/svg" xmlns:xlink="http://www.w3.org/1999/xlink" x="0px" y="0px"
	 viewBox="0 0 132 132" style="enable-background:new 0 0 132 132;" xml:space="preserve" width="132" height="132">
<style type="text/css">
	.st0{fill:#D04A02;}
</style>
<g>
	<path class="st0" d="M49.1,26.9c-1.6,1.9-3.1,4.1-4.4,6.6c-4.5,0-8.4,2.9-9.8,7h-3.1C36.3,34.6,42.3,29.8,49.1,26.9L49.1,26.9z M100.1,40.5
			h-9.7c-2-5.3-4.5-9.9-7.5-13.6C89.7,29.8,95.7,34.6,100.1,40.5L100.1,40.5z M82.7,105.2c3-3.7,5.6-8.3,7.6-13.7h9.8
			C95.6,97.5,89.7,102.2,82.7,105.2L82.7,105.2z M37.4,68.8c0.2,6.1,1,11.8,2.4,17.1H28.3c-2.7-5.2-4.4-10.9-4.8-17.1H37.4
			L37.4,68.8z M44.8,39.1c2.7,0,4.8,2.2,4.8,4.8c0,2.7-2.2,4.8-4.8,4.8c-2.7,0-4.8-2.2-4.8-4.8C40,41.3,42.1,39.1,44.8,39.1
			L44.8,39.1z M63.2,23.7v16.7h-8.5c-0.8-2.3-2.3-4.1-4.3-5.4C53.9,28.8,58.4,24.9,63.2,23.7L63.2,23.7z M68.8,40.5V23.7
			c6.2,1.5,11.8,7.7,15.5,16.7H68.8L68.8,40.5z M88.5,57c-2.9,1.1-5.1,3.3-6.2,6.2H68.8V46.1h17.5C87.3,49.5,88,53.1,88.5,57
			L88.5,57z M93.9,77.1c4.2-0.7,7.6-4,8.4-8.3h6.2c-0.4,6.1-2.1,11.9-4.8,17.1H92.1C92.9,83.1,93.5,80.1,93.9,77.1L93.9,77.1z
			 M92.1,62c2.7,0,4.8,2.2,4.8,4.8c0,2.7-2.2,4.8-4.8,4.8c-2.7,0-4.8-2.2-4.8-4.8C87.3,64.1,89.4,62,92.1,62L92.1,62z M76.3,85.9
			c-0.8-3.8-3.8-6.8-7.5-7.8v-9.2h13c0.7,3.5,3.2,6.4,6.4,7.7c-0.5,3.3-1.1,6.5-2,9.4H76.3L76.3,85.9z M68.8,108.2v-10
			c3.4-0.9,6.1-3.4,7.2-6.7h8.3C80.6,100.5,75,106.8,68.8,108.2L68.8,108.2z M56.3,91.5c1.1,3.2,3.7,5.7,6.9,6.6v10.1
			c-6.2-1.5-11.8-7.8-15.5-16.7H56.3L56.3,91.5z M66.1,93c-2.7,0-4.8-2.2-4.8-4.8c0-2.7,2.2-4.8,4.8-4.8c2.7,0,4.8,2.2,4.8,4.8
			C71,90.8,68.8,93,66.1,93L66.1,93z M63.2,68.8v9.3c-3.6,1.1-6.4,4-7.2,7.8H45.8c-1.5-5.2-2.5-11-2.7-17.1H63.2L63.2,68.8z
			 M55,46.1h8.2v17.1H43.1c0.1-3,0.4-6,0.8-8.9c0.3,0,0.6,0,0.9,0C49.8,54.4,54,50.8,55,46.1L55,46.1z M108.5,63.2h-6.7
			c-1.2-3.4-4.2-5.9-7.8-6.6c-0.4-3.7-1.1-7.2-2-10.5h11.5C106.4,51.3,108.1,57,108.5,63.2L108.5,63.2z M34.6,46.1
			c0.5,2.5,2,4.7,4,6.2c-0.6,3.5-1,7.2-1.1,10.9h-14c0.4-6.1,2.1-11.9,4.8-17.1H34.6L34.6,46.1z M31.9,91.5h9.7
			c1.9,5.3,4.5,9.9,7.4,13.5C42.2,102.1,36.3,97.4,31.9,91.5L31.9,91.5z M66,114.3c26.6,0,48.3-21.6,48.3-48.3
			c0-26.6-21.6-48.3-48.3-48.3c-26.6,0-48.2,21.6-48.2,48.3C17.8,92.6,39.4,114.3,66,114.3L66,114.3z M126.4,126.4H5.6V5.6h120.7
			V126.4L126.4,126.4z M0,0v132h132V0H0L0,0z"/>
</g>
</svg>
