<?xml version="1.0" encoding="utf-8"?>
<svg version="1.1" id="Layer_1" xmlns="http://www.w3.org/2000/svg" xmlns:xlink="http://www.w3.org/1999/xlink" x="0px" y="0px"
	 viewBox="0 0 132 132" style="enable-background:new 0 0 132 132;" xml:space="preserve" width="132" height="132">
<style type="text/css">
	.st0{fill:#D04A02;}
</style>
<path class="st0" d="M0,0v132h132V0H0z M126.4,126.4H68.8v-21h-5.4v21H5.6V5.6h120.8V126.4z"/>
<path class="st0" d="M84.4,72.8v-8.6c0-14.5-2.9-34.4-16.6-46.7L66,15.9l-1.8,1.6C50.5,29.7,47.7,49.6,47.7,64.2v8.7L33.2,83.6v16.7h65.5V83.6
	L84.4,72.8z M47.7,94.9h-9.1v-8.6l9.1-6.8V94.9z M79.1,94.9H68.8v-9.1c0-5.8,0-11.7,0-11.7h-5.4c0,6.8,0,16.3,0,20.7H53V64.2
	c0-12.7,2.3-29.9,13-40.9c10.7,11,13,28.2,13,40.9L79.1,94.9z M93.4,94.9h-9.1V79.5l9,6.8L93.4,94.9z"/>
<path class="st0" d="M66,45.4c-6.2,0-11.3,5.1-11.3,11.3c0,6.2,5.1,11.3,11.3,11.3c6.2,0,11.3-5.1,11.3-11.3C77.3,50.5,72.3,45.4,66,45.4
	C66,45.4,66,45.4,66,45.4z M66,62.7c-3.3,0-5.9-2.7-5.9-5.9c0-3.3,2.7-5.9,5.9-5.9c3.3,0,5.9,2.7,5.9,5.9C71.9,60,69.3,62.7,66,62.7
	z"/>
<rect class="st0" x="47.6" y="105.4" width="5.4" height="14.6"/>
<rect class="st0" x="79.1" y="105.4" width="5.4" height="14.6"/>
<rect class="st0" x="93.4" y="105.4" width="5.4" height="7.7"/>
<rect class="st0" x="33.2" y="105.4" width="5.4" height="7.7"/>
</svg>
