<?xml version="1.0" encoding="utf-8"?>
<svg version="1.1" id="Layer_1" xmlns="http://www.w3.org/2000/svg" xmlns:xlink="http://www.w3.org/1999/xlink" x="0px" y="0px"
	 viewBox="0 0 132 132" style="enable-background:new 0 0 132 132;" xml:space="preserve" width="132" height="132">
<style type="text/css">
	.st0{fill:#D04A02;}
</style>
<path class="st0" d="M72.4,64.6c1,1.1,2.3,1.8,3.7,2V56.5c-0.2-0.1-0.4-0.2-0.7-0.2c-0.3-0.1-0.6-0.2-0.9-0.2c-1.2-0.3-2.4-0.7-3.5-1.1
	c-1.1-0.4-2.2-1-3.1-1.7c-0.9-0.7-1.7-1.7-2.2-2.8c-0.6-1.3-0.9-2.6-0.8-4c0-1.5,0.3-3,0.9-4.4c0.6-1.2,1.5-2.3,2.5-3.2
	c1.1-0.9,2.3-1.5,3.6-2c1.4-0.5,2.8-0.8,4.2-0.8v-3.7H79v3.7c1.4,0.1,2.8,0.5,4.1,0.9c1.2,0.4,2.4,1.1,3.4,1.9
	c1,0.9,1.8,1.9,2.4,3.1c0.7,1.4,1,2.9,1.1,4.4H83c0-1.2-0.4-2.4-1.2-3.3c-0.7-0.9-1.7-1.4-2.8-1.4v8.6l1.2,0.3
	c0.4,0.1,0.8,0.2,1.3,0.3c2,0.5,3.8,1.3,5.5,2.4c1.1,0.8,2.1,1.8,2.9,3c0.6,0.9,1,2,1.1,3.1c0.1,0.9,0.2,1.8,0.2,2.8
	c-0.1,2.2-1,4.3-2.4,5.9c-1,1.1-2.3,2.1-3.7,2.8c-1.9,0.9-3.9,1.4-6,1.5v4.1h-2.9v-4.1c-3.6-0.3-6.5-1.4-8.5-3.3
	c-2-2-3.2-4.9-3.5-8.7H71C70.8,61.9,71.4,63.4,72.4,64.6z M74.6,42c-0.5,0.2-1,0.4-1.4,0.8c-0.4,0.3-0.8,0.8-1,1.2
	c-0.2,0.6-0.4,1.2-0.4,1.8c-0.1,0.9,0.3,1.8,1,2.5c1,0.7,2.1,1.2,3.3,1.4v-7.9C75.6,41.8,75.1,41.8,74.6,42L74.6,42z M80.8,66.3
	c0.6-0.2,1.2-0.5,1.7-0.9c0.5-0.4,0.9-0.9,1.2-1.4c0.3-0.6,0.5-1.3,0.5-2c0.1-1.1-0.4-2.1-1.2-2.8c-1.2-0.8-2.6-1.4-4-1.7v9.3
	C79.6,66.6,80.2,66.5,80.8,66.3L80.8,66.3z"/>
<path class="st0" d="M0,0v132h132V0H0z M126.4,126.4H5.6V5.6h120.7L126.4,126.4z"/>
<path class="st0" d="M18.1,117.9l32.5-32.5c17.1,14.9,43.1,13.1,58-4c14.2-16.3,13.3-40.7-1.9-56c-16-16-42.1-16-58.1,0
	c-15.2,15.3-16.1,39.7-1.9,56l-32.5,32.5L18.1,117.9z M52.6,29.3c13.8-13.8,36.3-13.8,50.1,0s13.8,36.3,0,50.1s-36.3,13.8-50.1,0
	c-6.6-6.6-10.4-15.7-10.4-25.1C42.1,45,45.9,36,52.6,29.3z"/>
</svg>
